<?xml version="1.0" encoding="UTF-8"?>
<svg xmlns="http://www.w3.org/2000/svg" xmlns:xlink="http://www.w3.org/1999/xlink" width="27px" height="27px" viewBox="0 0 27 26" version="1.1">
<g id="surface1">
<path style=" stroke:none;fill-rule:nonzero;fill:rgb(0%,0%,0%);fill-opacity:1;" d="M 6.089844 8.65625 C 5.792969 8.730469 5.679688 8.816406 5.550781 9.066406 C 5.496094 9.171875 2.609375 17.683594 2.609375 17.742188 C 2.609375 17.761719 2.816406 17.765625 3.558594 17.761719 L 4.507812 17.753906 L 4.835938 16.703125 L 5.167969 15.652344 L 8.722656 15.644531 L 9.023438 16.601562 C 9.1875 17.128906 9.335938 17.605469 9.355469 17.664062 L 9.386719 17.765625 L 11.296875 17.765625 L 11.28125 17.71875 C 10.839844 16.34375 8.414062 9.101562 8.375 9.023438 C 8.269531 8.839844 8.136719 8.726562 7.941406 8.667969 C 7.777344 8.613281 7.75 8.613281 7.03125 8.609375 C 6.316406 8.605469 6.28125 8.605469 6.089844 8.65625 Z M 7.664062 12.261719 C 7.976562 13.257812 8.234375 14.085938 8.234375 14.097656 C 8.234375 14.121094 7.960938 14.125 6.949219 14.125 L 5.664062 14.125 L 5.675781 14.078125 C 5.679688 14.050781 5.9375 13.222656 6.242188 12.234375 L 6.800781 10.441406 L 6.949219 10.449219 L 7.09375 10.453125 Z M 7.664062 12.261719 "/>
<path style=" stroke:none;fill-rule:nonzero;fill:rgb(0%,0%,0%);fill-opacity:1;" d="M 11.703125 12.777344 L 11.710938 16.953125 L 11.757812 17.089844 C 11.824219 17.277344 11.902344 17.394531 12.035156 17.515625 C 12.179688 17.644531 12.339844 17.714844 12.542969 17.746094 C 12.644531 17.757812 13.621094 17.765625 15.125 17.765625 L 17.550781 17.765625 L 17.550781 16.078125 L 13.566406 16.078125 L 13.566406 8.601562 L 11.699219 8.601562 Z M 11.703125 12.777344 "/>
<path style=" stroke:none;fill-rule:nonzero;fill:rgb(0%,0%,0%);fill-opacity:1;" d="M 18.703125 12.765625 C 18.707031 16.675781 18.710938 16.941406 18.75 17.058594 C 18.808594 17.25 18.890625 17.386719 19.027344 17.507812 C 19.175781 17.640625 19.335938 17.714844 19.542969 17.746094 C 19.640625 17.757812 20.617188 17.765625 22.125 17.765625 L 24.546875 17.765625 L 24.546875 16.078125 L 20.566406 16.078125 L 20.566406 8.601562 L 18.695312 8.601562 Z M 18.703125 12.765625 "/>
</g>
</svg>
