<svg width="27" height="27" viewBox="0 0 27 27" fill="none" xmlns="http://www.w3.org/2000/svg">
<path fill-rule="evenodd" clip-rule="evenodd" d="M13.2039 24.501C19.279 24.501 24.2039 19.5761 24.2039 13.501C24.2039 7.42584 19.279 2.50098 13.2039 2.50098C7.12873 2.50098 2.20386 7.42584 2.20386 13.501C2.20386 19.5761 7.12873 24.501 13.2039 24.501ZM13.2039 26.501C20.3836 26.501 26.2039 20.6807 26.2039 13.501C26.2039 6.32127 20.3836 0.500977 13.2039 0.500977C6.02416 0.500977 0.203857 6.32127 0.203857 13.501C0.203857 20.6807 6.02416 26.501 13.2039 26.501Z" fill="#4A14E3"/>
<path d="M12.6783 9.07116C13.2599 8.70875 13.8416 8.3866 14.4233 8.14499C15.0049 7.90338 15.5866 7.70203 16.1294 7.58123C16.8662 7.46042 17.4479 7.46042 17.9132 7.6215C18.4173 7.78257 18.7663 8.10472 18.9989 8.54767C19.1928 8.95036 19.2316 9.43358 19.1541 9.99734C18.9989 10.7624 18.5724 11.6886 17.8356 12.7356C17.7193 12.8967 17.603 13.0577 17.4479 13.2188C17.603 13.4202 17.7193 13.5812 17.8356 13.7423C18.5724 14.7893 18.9989 15.7155 19.1541 16.4806C19.2316 17.004 19.1928 17.5275 18.9989 17.9302C18.7663 18.3329 18.4173 18.6551 17.9132 18.8161C17.5254 18.9772 17.0601 19.0175 16.4784 18.9369C16.4397 18.9772 16.4397 18.9772 16.4009 19.0175C16.1294 19.2993 15.7417 19.5007 15.3539 19.5007C14.9274 19.5007 14.5784 19.2993 14.3069 19.0175C14.0355 18.7356 13.8416 18.3732 13.8416 17.9302C13.8416 17.4873 14.0355 17.1249 14.3069 16.843C14.5784 16.5611 14.9274 16.4 15.3539 16.4C15.7417 16.4 16.1294 16.5611 16.4009 16.843C16.5948 17.0443 16.7499 17.3262 16.7887 17.6483C17.0989 17.6483 17.3315 17.6483 17.5254 17.5678C17.6805 17.5275 17.7969 17.447 17.8356 17.3262C17.9132 17.1651 17.952 16.9638 17.8744 16.6819C17.7969 16.1181 17.4479 15.3933 16.8274 14.5477C16.7499 14.4269 16.6723 14.3463 16.5948 14.2255C15.7805 15.1114 14.811 15.9571 13.8416 16.6416C12.2905 17.7691 10.6231 18.6148 9.26591 18.8564C8.52915 19.0175 7.9475 18.9772 7.48217 18.8161C6.97807 18.6551 6.62908 18.3329 6.39641 17.9302C6.20253 17.5275 6.16375 17.004 6.24131 16.4806C6.35764 15.7155 6.78418 14.7893 7.52095 13.7423C7.67606 13.5812 7.79239 13.4202 7.90872 13.2188C7.79239 13.0577 7.67606 12.8967 7.52095 12.7356C6.78418 11.6886 6.35764 10.7624 6.24131 9.99734C6.16375 9.43358 6.20253 8.95036 6.39641 8.54767C6.62908 8.10472 6.97807 7.78257 7.48217 7.6215C7.9475 7.46042 8.52915 7.46042 9.26591 7.58123C10.3129 7.78257 11.4762 8.30606 12.6783 9.07116ZM10.5456 13.6618C10.8946 13.6618 11.2435 13.8228 11.4762 14.0644C11.7089 14.3061 11.864 14.6685 11.864 15.0309C11.864 15.4336 11.7089 15.7557 11.4762 15.9973C11.2435 16.2792 10.8946 16.4 10.5456 16.4C10.1966 16.4 9.84757 16.2792 9.61491 15.9973C9.38225 15.7557 9.22714 15.4336 9.22714 15.0309C9.22714 14.9101 9.22714 14.8296 9.26591 14.7087C9.07203 14.5477 8.91692 14.3866 8.76181 14.2255C8.68426 14.3463 8.60671 14.4269 8.56793 14.5477C7.9475 15.3933 7.5985 16.1181 7.48217 16.6819C7.44339 16.9638 7.48217 17.1651 7.52095 17.3262C7.5985 17.447 7.71483 17.5275 7.86994 17.5678C8.14138 17.6483 8.52915 17.6886 9.03325 17.5678C10.1966 17.3262 11.6701 16.6014 13.1048 15.5947C14.0743 14.9101 14.9661 14.1047 15.7805 13.2188C14.9661 12.3732 14.0743 11.5678 13.1048 10.8832C11.6701 9.87653 10.1966 9.11143 9.03325 8.91009C8.52915 8.78928 8.14138 8.78928 7.86994 8.86982C7.71483 8.95036 7.5985 9.03089 7.52095 9.1517C7.48217 9.2725 7.44339 9.51411 7.48217 9.75573C7.5985 10.3195 7.9475 11.0846 8.56793 11.9302C8.60671 12.051 8.68426 12.1316 8.76181 12.2524C8.9557 12.051 9.11081 11.89 9.30469 11.6886C9.30469 11.6081 9.26591 11.4873 9.26591 11.4067C9.26591 11.004 9.42102 10.6416 9.69246 10.4C9.92512 10.1181 10.2741 9.95707 10.6619 9.95707C11.0109 9.95707 11.3599 10.1181 11.6313 10.4C11.864 10.6416 12.0191 11.004 12.0191 11.4067C12.0191 11.7691 11.864 12.1316 11.6313 12.4134C11.3599 12.6551 11.0109 12.8161 10.6619 12.8161C10.468 12.8161 10.2741 12.7759 10.119 12.6953C9.9639 12.8967 9.77002 13.0577 9.61491 13.2188C9.77002 13.4202 9.92512 13.5812 10.119 13.7423C10.2353 13.702 10.3904 13.6618 10.5456 13.6618ZM10.7782 14.8296C10.7007 14.749 10.6231 14.7087 10.5456 14.7087C10.468 14.7087 10.3904 14.749 10.3129 14.8296C10.2741 14.8698 10.2353 14.9504 10.2353 15.0309C10.2353 15.1114 10.2741 15.192 10.3129 15.2725C10.3904 15.3128 10.468 15.353 10.5456 15.353C10.6231 15.353 10.7007 15.3128 10.7782 15.2725C10.817 15.192 10.8558 15.1114 10.8558 15.0309C10.8558 14.9504 10.817 14.8698 10.7782 14.8296ZM15.6641 17.5678C15.5866 17.4873 15.4702 17.447 15.3539 17.447C15.1988 17.447 15.0825 17.4873 15.0049 17.5678C14.9274 17.6886 14.8886 17.8094 14.8886 17.9302C14.8886 18.051 14.9274 18.2121 15.0049 18.2926C15.0825 18.3732 15.1988 18.4134 15.3539 18.4134C15.4702 18.4134 15.5866 18.3732 15.6641 18.2926C15.7805 18.2121 15.8192 18.051 15.8192 17.9302C15.8192 17.8094 15.7805 17.6886 15.6641 17.5678ZM10.8946 11.1249C10.8558 11.0846 10.7394 11.0443 10.6619 11.0443C10.5456 11.0443 10.468 11.0846 10.3904 11.1249C10.3517 11.2054 10.3129 11.2859 10.3129 11.4067C10.3129 11.4873 10.3517 11.6081 10.3904 11.6483C10.468 11.7289 10.5456 11.7691 10.6619 11.7691C10.7394 11.7691 10.8558 11.7289 10.8946 11.6483C10.9721 11.6081 11.0109 11.4873 11.0109 11.4067C11.0109 11.2859 10.9721 11.2054 10.8946 11.1249ZM16.5948 12.2524C16.6723 12.1316 16.7499 12.051 16.8274 11.9302C17.4479 11.0846 17.7969 10.3195 17.8744 9.75573C17.9132 9.51411 17.9132 9.2725 17.8356 9.1517C17.7969 9.03089 17.6805 8.95036 17.5254 8.86982C17.254 8.78928 16.8662 8.78928 16.3621 8.91009C15.9356 8.99062 15.4315 9.1517 14.8886 9.35304C14.5784 9.51411 14.2294 9.67519 13.9192 9.87653C14.8498 10.5611 15.7805 11.3665 16.5948 12.2524Z" fill="#4A14E3"/>
</svg>
