<svg width="27" height="27" viewBox="0 0 27 27" fill="none" xmlns="http://www.w3.org/2000/svg">
<path fill-rule="evenodd" clip-rule="evenodd" d="M13.2039 24.501C19.2791 24.501 24.2039 19.5761 24.2039 13.501C24.2039 7.42584 19.2791 2.50098 13.2039 2.50098C7.12879 2.50098 2.20392 7.42584 2.20392 13.501C2.20392 19.5761 7.12879 24.501 13.2039 24.501ZM13.2039 26.501C20.3836 26.501 26.2039 20.6807 26.2039 13.501C26.2039 6.32127 20.3836 0.500977 13.2039 0.500977C6.02422 0.500977 0.203918 6.32127 0.203918 13.501C0.203918 20.6807 6.02422 26.501 13.2039 26.501Z" fill="#0038FF"/>
<g clip-path="url(#clip0_31_18130)">
<path d="M18.3958 12.9131L17.4624 16.185C17.3248 16.6654 16.8804 17.001 16.3813 17.001H11.3289C11.1215 17.001 10.9539 16.833 10.9539 16.626V11.376C10.9539 11.2954 10.9798 11.2166 11.0282 11.1521L13.0502 8.4371C13.2744 8.15623 13.5977 8.00098 13.9442 8.00098C14.57 8.00098 15.0789 8.50985 15.0789 9.13573V11.001H16.9547C17.429 11.001 17.8648 11.2181 18.1502 11.5969C18.4367 11.9764 18.5259 12.456 18.3958 12.9131Z" fill="#0038FF"/>
<path d="M9.82892 11.001H8.32892C8.12154 11.001 7.95392 11.169 7.95392 11.376V16.626C7.95392 16.833 8.12154 17.001 8.32892 17.001H9.82892C10.0363 17.001 10.2039 16.833 10.2039 16.626V11.376C10.2039 11.169 10.0363 11.001 9.82892 11.001ZM9.07892 16.0635C8.76842 16.0635 8.51642 15.8115 8.51642 15.501C8.51642 15.1905 8.76842 14.9385 9.07892 14.9385C9.38942 14.9385 9.64142 15.1905 9.64142 15.501C9.64142 15.8115 9.38942 16.0635 9.07892 16.0635Z" fill="#0038FF"/>
</g>
<defs>
<clipPath id="clip0_31_18130">
<rect width="12" height="12" fill="white" transform="translate(7.20392 6.50098)"/>
</clipPath>
</defs>
</svg>
