<svg width="18" height="18" viewBox="0 0 18 18" fill="none" xmlns="http://www.w3.org/2000/svg">
<g clip-path="url(#clip0_4_4110)">
<path d="M16.0711 9.11868H8.87916V1.92672C8.87916 1.83832 8.80684 1.766 8.71845 1.766H8.19613C7.14084 1.76427 6.09562 1.97123 5.12061 2.37495C4.1456 2.77868 3.26004 3.37121 2.51488 4.11846C1.78103 4.85003 1.19632 5.71721 0.793225 6.67181C0.373771 7.66188 0.158534 8.72645 0.160413 9.80172C0.158685 10.857 0.365637 11.9022 0.769363 12.8772C1.17309 13.8522 1.76562 14.7378 2.51287 15.483C3.25014 16.2202 4.10997 16.8008 5.06622 17.2046C6.05629 17.6241 7.12086 17.8393 8.19613 17.8374C9.25142 17.8392 10.2966 17.6322 11.2716 17.2285C12.2467 16.8248 13.1322 16.2322 13.8774 15.485C14.6147 14.7477 15.1952 13.8879 15.599 12.9316C16.0185 11.9416 16.2337 10.877 16.2318 9.80172V9.2794C16.2318 9.191 16.1595 9.11868 16.0711 9.11868ZM12.891 14.5388C12.2689 15.156 11.5312 15.6444 10.72 15.976C9.90889 16.3077 9.04029 16.476 8.16398 16.4714C6.39412 16.4633 4.73073 15.7702 3.47916 14.5187C2.21956 13.2591 1.52648 11.5836 1.52648 9.80172C1.52648 8.0198 2.21956 6.34435 3.47916 5.08475C4.57604 3.98788 5.98831 3.3189 7.51309 3.16623V10.4848H14.8316C14.6769 12.0176 14.0019 13.4379 12.891 14.5388V14.5388ZM17.839 8.00172L17.7868 7.4352C17.616 5.58498 16.7943 3.83922 15.4725 2.52136C14.1497 1.20108 12.4075 0.383991 10.5466 0.211091L9.97805 0.158859C9.88363 0.150823 9.80327 0.223145 9.80327 0.317564V8.03386C9.80327 8.12225 9.87559 8.19457 9.96398 8.19457L17.6783 8.17448C17.7727 8.17448 17.847 8.09413 17.839 8.00172ZM11.1653 6.83252V1.67761C12.4308 1.94248 13.5921 2.56921 14.5082 3.48163C15.4263 4.3977 16.0551 5.56288 16.3162 6.81846L11.1653 6.83252Z" fill="#344058"/>
</g>
<defs>
<clipPath id="clip0_4_4110">
<rect width="18" height="18" fill="white"/>
</clipPath>
</defs>
</svg>
