<svg width="14" height="12" viewBox="0 0 14 12" fill="none" xmlns="http://www.w3.org/2000/svg">
<path d="M0.5 5.625C0.5 5.27864 0.778642 5 1.125 5C1.47136 5 1.75 5.27864 1.75 5.625C1.75 5.97136 1.47136 6.25 1.125 6.25C0.778642 6.25 0.5 5.97136 0.5 5.625ZM0.5 1.125C0.5 0.778642 0.778642 0.5 1.125 0.5C1.47136 0.5 1.75 0.778642 1.75 1.125C1.75 1.47136 1.47136 1.75 1.125 1.75C0.778642 1.75 0.5 1.47136 0.5 1.125ZM0.5 10.125C0.5 9.78397 0.780807 9.5 1.125 9.5C1.46919 9.5 1.75 9.78397 1.75 10.125C1.75 10.4639 1.46386 10.75 1.125 10.75C0.786142 10.75 0.5 10.4639 0.5 10.125ZM13.375 9.875V10.375H3.875V9.875H13.375ZM13.375 5.375V5.875H3.875V5.375H13.375ZM13.375 1.375H3.875V0.875H13.375V1.375Z" fill="#006FFF" stroke="#344058"/>
</svg>
