<svg width="27" height="27" viewBox="0 0 27 27" fill="none" xmlns="http://www.w3.org/2000/svg">
<path fill-rule="evenodd" clip-rule="evenodd" d="M13.2039 24.501C19.279 24.501 24.2039 19.5761 24.2039 13.501C24.2039 7.42584 19.279 2.50098 13.2039 2.50098C7.12873 2.50098 2.20386 7.42584 2.20386 13.501C2.20386 19.5761 7.12873 24.501 13.2039 24.501ZM13.2039 26.501C20.3836 26.501 26.2039 20.6807 26.2039 13.501C26.2039 6.32127 20.3836 0.500977 13.2039 0.500977C6.02416 0.500977 0.203857 6.32127 0.203857 13.501C0.203857 20.6807 6.02416 26.501 13.2039 26.501Z" fill="#34B628"/>
<path fill-rule="evenodd" clip-rule="evenodd" d="M20.8641 10.2521L11.0699 18.8624L6.50696 14.4288L7.9007 12.9944L11.1378 16.1397L19.5436 8.75L20.8641 10.2521Z" fill="#34B628"/>
</svg>
