<svg width="13" height="13" viewBox="0 0 13 13" fill="none" xmlns="http://www.w3.org/2000/svg">
<path d="M6.125 0C2.74258 0 0 2.74258 0 6.125C0 9.50742 2.74258 12.25 6.125 12.25C9.50742 12.25 12.25 9.50742 12.25 6.125C12.25 2.74258 9.50742 0 6.125 0ZM8.75 6.45312C8.75 6.51328 8.70078 6.5625 8.64062 6.5625H6.5625V8.64062C6.5625 8.70078 6.51328 8.75 6.45312 8.75H5.79688C5.73672 8.75 5.6875 8.70078 5.6875 8.64062V6.5625H3.60938C3.54922 6.5625 3.5 6.51328 3.5 6.45312V5.79688C3.5 5.73672 3.54922 5.6875 3.60938 5.6875H5.6875V3.60938C5.6875 3.54922 5.73672 3.5 5.79688 3.5H6.45312C6.51328 3.5 6.5625 3.54922 6.5625 3.60938V5.6875H8.64062C8.70078 5.6875 8.75 5.73672 8.75 5.79688V6.45312Z" fill="#344058"/>
</svg>
