<svg width="34" height="33" viewBox="0 0 34 33" fill="none" xmlns="http://www.w3.org/2000/svg">
<g clip-path="url(#clip0_170_13293)">
<path d="M2 29V3.00002C2 2.7348 2.10536 2.48045 2.29289 2.29291C2.48043 2.10537 2.73478 2.00002 3 2.00002H18V6.00002C18 6.53045 18.2107 7.03916 18.5858 7.41423C18.9609 7.7893 19.4696 8.00002 20 8.00002H24V11H26V7.00002C26.0008 6.86841 25.9755 6.73795 25.9258 6.61611C25.876 6.49427 25.8027 6.38346 25.71 6.29002L19.71 0.290017C19.6166 0.197335 19.5057 0.12401 19.3839 0.0742455C19.2621 0.0244809 19.1316 -0.000744179 19 1.67143e-05H3C2.20435 1.67143e-05 1.44129 0.316087 0.87868 0.878696C0.31607 1.44131 0 2.20437 0 3.00002L0 29C0 29.7957 0.31607 30.5587 0.87868 31.1213C1.44129 31.6839 2.20435 32 3 32H10V30H3C2.73478 30 2.48043 29.8947 2.29289 29.7071C2.10536 29.5196 2 29.2652 2 29Z" fill="black"/>
</g>
<path d="M12.7539 19.8008H11.043C11.0117 19.5794 10.9479 19.3828 10.8516 19.2109C10.7552 19.0365 10.6315 18.888 10.4805 18.7656C10.3294 18.6432 10.1549 18.5495 9.95703 18.4844C9.76172 18.4193 9.54948 18.3867 9.32031 18.3867C8.90625 18.3867 8.54557 18.4896 8.23828 18.6953C7.93099 18.8984 7.69271 19.1953 7.52344 19.5859C7.35417 19.974 7.26953 20.4453 7.26953 21C7.26953 21.5703 7.35417 22.0495 7.52344 22.4375C7.69531 22.8255 7.9349 23.1185 8.24219 23.3164C8.54948 23.5143 8.90495 23.6133 9.30859 23.6133C9.53516 23.6133 9.74479 23.5833 9.9375 23.5234C10.1328 23.4635 10.306 23.3763 10.457 23.2617C10.6081 23.1445 10.7331 23.0026 10.832 22.8359C10.9336 22.6693 11.0039 22.4792 11.043 22.2656L12.7539 22.2734C12.7096 22.6406 12.599 22.9948 12.4219 23.3359C12.2474 23.6745 12.0117 23.9779 11.7148 24.2461C11.4206 24.5117 11.069 24.7227 10.6602 24.8789C10.2539 25.0326 9.79427 25.1094 9.28125 25.1094C8.56771 25.1094 7.92969 24.9479 7.36719 24.625C6.80729 24.3021 6.36458 23.8346 6.03906 23.2227C5.71615 22.6107 5.55469 21.8698 5.55469 21C5.55469 20.1276 5.71875 19.3854 6.04688 18.7734C6.375 18.1615 6.82031 17.6953 7.38281 17.375C7.94531 17.0521 8.57813 16.8906 9.28125 16.8906C9.74479 16.8906 10.1745 16.9557 10.5703 17.0859C10.9688 17.2161 11.3216 17.4062 11.6289 17.6562C11.9362 17.9036 12.1862 18.207 12.3789 18.5664C12.5742 18.9258 12.6992 19.3372 12.7539 19.8008ZM18.3066 19.3008C18.2754 18.9857 18.1413 18.7409 17.9043 18.5664C17.6673 18.3919 17.3457 18.3047 16.9395 18.3047C16.6634 18.3047 16.4303 18.3437 16.2402 18.4219C16.0501 18.4974 15.9043 18.6029 15.8027 18.7383C15.7038 18.8737 15.6543 19.0273 15.6543 19.1992C15.6491 19.3424 15.679 19.4674 15.7441 19.5742C15.8118 19.681 15.9043 19.7734 16.0215 19.8516C16.1387 19.9271 16.2741 19.9935 16.4277 20.0508C16.5814 20.1055 16.7454 20.1523 16.9199 20.1914L17.6387 20.3633C17.9876 20.4414 18.3079 20.5456 18.5996 20.6758C18.8913 20.806 19.1439 20.9661 19.3574 21.1562C19.571 21.3464 19.7363 21.5703 19.8535 21.8281C19.9733 22.0859 20.0345 22.3815 20.0371 22.7148C20.0345 23.2044 19.9095 23.6289 19.6621 23.9883C19.4173 24.3451 19.0632 24.6224 18.5996 24.8203C18.1387 25.0156 17.5827 25.1133 16.9316 25.1133C16.2858 25.1133 15.7233 25.0143 15.2441 24.8164C14.7676 24.6185 14.3952 24.3255 14.127 23.9375C13.8613 23.5469 13.722 23.0638 13.709 22.4883H15.3457C15.3639 22.7565 15.4408 22.9805 15.5762 23.1602C15.7142 23.3372 15.8978 23.4714 16.127 23.5625C16.3587 23.651 16.6204 23.6953 16.9121 23.6953C17.1986 23.6953 17.4473 23.6536 17.6582 23.5703C17.8717 23.487 18.0371 23.3711 18.1543 23.2227C18.2715 23.0742 18.3301 22.9036 18.3301 22.7109C18.3301 22.5312 18.2767 22.3802 18.1699 22.2578C18.0658 22.1354 17.9121 22.0312 17.709 21.9453C17.5085 21.8594 17.2624 21.7812 16.9707 21.7109L16.0996 21.4922C15.4251 21.3281 14.8926 21.0716 14.502 20.7227C14.1113 20.3737 13.9173 19.9036 13.9199 19.3125C13.9173 18.8281 14.0462 18.4049 14.3066 18.043C14.5697 17.681 14.9303 17.3984 15.3887 17.1953C15.847 16.9922 16.3678 16.8906 16.9512 16.8906C17.5449 16.8906 18.0632 16.9922 18.5059 17.1953C18.9512 17.3984 19.2975 17.681 19.5449 18.043C19.7923 18.4049 19.9199 18.8242 19.9277 19.3008H18.3066ZM22.6201 17L24.5537 23.0781H24.6279L26.5654 17H28.4404L25.6826 25H23.5029L20.7412 17H22.6201Z" fill="black"/>
<defs>
<clipPath id="clip0_170_13293">
<rect width="32" height="32" fill="white"/>
</clipPath>
</defs>
</svg>
