<svg width="34" height="33" viewBox="0 0 34 33" fill="none" xmlns="http://www.w3.org/2000/svg">
<g clip-path="url(#clip0_170_13273)">
<path d="M2 29V3.00002C2 2.7348 2.10536 2.48045 2.29289 2.29291C2.48043 2.10537 2.73478 2.00002 3 2.00002H18V6.00002C18 6.53045 18.2107 7.03916 18.5858 7.41423C18.9609 7.7893 19.4696 8.00002 20 8.00002H24V11H26V7.00002C26.0008 6.86841 25.9755 6.73795 25.9258 6.61611C25.876 6.49427 25.8027 6.38346 25.71 6.29002L19.71 0.290017C19.6166 0.197335 19.5057 0.12401 19.3839 0.0742455C19.2621 0.0244809 19.1316 -0.000744179 19 1.67143e-05H3C2.20435 1.67143e-05 1.44129 0.316087 0.87868 0.878696C0.31607 1.44131 0 2.20437 0 3.00002L0 29C0 29.7957 0.31607 30.5587 0.87868 31.1213C1.44129 31.6839 2.20435 32 3 32H10V30H3C2.73478 30 2.48043 29.8947 2.29289 29.7071C2.10536 29.5196 2 29.2652 2 29Z" fill="black"/>
</g>
<path d="M8.53125 25H5.69531V17H8.55469C9.35938 17 10.0521 17.1602 10.6328 17.4805C11.2135 17.7982 11.6602 18.2552 11.9727 18.8516C12.2878 19.4479 12.4453 20.1615 12.4453 20.9922C12.4453 21.8255 12.2878 22.5417 11.9727 23.1406C11.6602 23.7396 11.2109 24.1992 10.625 24.5195C10.0417 24.8398 9.34375 25 8.53125 25ZM7.38672 23.5508H8.46094C8.96094 23.5508 9.38151 23.4622 9.72266 23.2852C10.0664 23.1055 10.3242 22.8281 10.4961 22.4531C10.6706 22.0755 10.7578 21.5885 10.7578 20.9922C10.7578 20.401 10.6706 19.918 10.4961 19.543C10.3242 19.168 10.0677 18.8919 9.72656 18.7148C9.38542 18.5378 8.96484 18.4492 8.46484 18.4492H7.38672V23.5508ZM21.0498 21C21.0498 21.8724 20.8844 22.6146 20.5537 23.2266C20.2256 23.8385 19.7777 24.306 19.21 24.6289C18.6449 24.9492 18.0094 25.1094 17.3037 25.1094C16.5928 25.1094 15.9548 24.9479 15.3896 24.625C14.8245 24.3021 14.3779 23.8346 14.0498 23.2227C13.7217 22.6107 13.5576 21.8698 13.5576 21C13.5576 20.1276 13.7217 19.3854 14.0498 18.7734C14.3779 18.1615 14.8245 17.6953 15.3896 17.375C15.9548 17.0521 16.5928 16.8906 17.3037 16.8906C18.0094 16.8906 18.6449 17.0521 19.21 17.375C19.7777 17.6953 20.2256 18.1615 20.5537 18.7734C20.8844 19.3854 21.0498 20.1276 21.0498 21ZM19.335 21C19.335 20.4349 19.2503 19.9583 19.0811 19.5703C18.9144 19.1823 18.6787 18.888 18.374 18.6875C18.0693 18.487 17.7126 18.3867 17.3037 18.3867C16.8949 18.3867 16.5381 18.487 16.2334 18.6875C15.9287 18.888 15.6917 19.1823 15.5225 19.5703C15.3558 19.9583 15.2725 20.4349 15.2725 21C15.2725 21.5651 15.3558 22.0417 15.5225 22.4297C15.6917 22.8177 15.9287 23.112 16.2334 23.3125C16.5381 23.513 16.8949 23.6133 17.3037 23.6133C17.7126 23.6133 18.0693 23.513 18.374 23.3125C18.6787 23.112 18.9144 22.8177 19.0811 22.4297C19.2503 22.0417 19.335 21.5651 19.335 21ZM29.3613 19.8008H27.6504C27.6191 19.5794 27.5553 19.3828 27.459 19.2109C27.3626 19.0365 27.2389 18.888 27.0879 18.7656C26.9368 18.6432 26.7624 18.5495 26.5645 18.4844C26.3691 18.4193 26.1569 18.3867 25.9277 18.3867C25.5137 18.3867 25.153 18.4896 24.8457 18.6953C24.5384 18.8984 24.3001 19.1953 24.1309 19.5859C23.9616 19.974 23.877 20.4453 23.877 21C23.877 21.5703 23.9616 22.0495 24.1309 22.4375C24.3027 22.8255 24.5423 23.1185 24.8496 23.3164C25.1569 23.5143 25.5124 23.6133 25.916 23.6133C26.1426 23.6133 26.3522 23.5833 26.5449 23.5234C26.7402 23.4635 26.9134 23.3763 27.0645 23.2617C27.2155 23.1445 27.3405 23.0026 27.4395 22.8359C27.541 22.6693 27.6113 22.4792 27.6504 22.2656L29.3613 22.2734C29.3171 22.6406 29.2064 22.9948 29.0293 23.3359C28.8548 23.6745 28.6191 23.9779 28.3223 24.2461C28.028 24.5117 27.6764 24.7227 27.2676 24.8789C26.8613 25.0326 26.4017 25.1094 25.8887 25.1094C25.1751 25.1094 24.5371 24.9479 23.9746 24.625C23.4147 24.3021 22.972 23.8346 22.6465 23.2227C22.3236 22.6107 22.1621 21.8698 22.1621 21C22.1621 20.1276 22.3262 19.3854 22.6543 18.7734C22.9824 18.1615 23.4277 17.6953 23.9902 17.375C24.5527 17.0521 25.1855 16.8906 25.8887 16.8906C26.3522 16.8906 26.7819 16.9557 27.1777 17.0859C27.5762 17.2161 27.929 17.4062 28.2363 17.6562C28.5436 17.9036 28.7936 18.207 28.9863 18.5664C29.1816 18.9258 29.3066 19.3372 29.3613 19.8008Z" fill="black"/>
<defs>
<clipPath id="clip0_170_13273">
<rect width="32" height="32" fill="white"/>
</clipPath>
</defs>
</svg>
