<svg width="18" height="18" viewBox="0 0 18 18" fill="none" xmlns="http://www.w3.org/2000/svg">
<path d="M3.89088 13.8196C3.93106 13.8196 3.97123 13.8156 4.01141 13.8096L7.39043 13.2169C7.43061 13.2089 7.46878 13.1908 7.4969 13.1607L16.0128 4.64483C16.0314 4.62624 16.0462 4.60417 16.0562 4.57987C16.0663 4.55556 16.0715 4.52951 16.0715 4.5032C16.0715 4.47689 16.0663 4.45084 16.0562 4.42653C16.0462 4.40223 16.0314 4.38016 16.0128 4.36157L12.6739 1.02072C12.6357 0.982553 12.5855 0.962463 12.5313 0.962463C12.477 0.962463 12.4268 0.982553 12.3886 1.02072L3.8728 9.53657C3.84266 9.5667 3.82458 9.60287 3.81655 9.64304L3.22391 13.0221C3.20437 13.1297 3.21135 13.2404 3.24426 13.3448C3.27716 13.4491 3.33499 13.5438 3.41275 13.6207C3.54534 13.7493 3.71208 13.8196 3.89088 13.8196V13.8196ZM5.24489 10.316L12.5313 3.03166L14.0038 4.5042L6.71744 11.7886L4.9315 12.104L5.24489 10.316V10.316ZM16.3924 15.5071H1.60672C1.25114 15.5071 0.963867 15.7944 0.963867 16.15V16.8732C0.963867 16.9616 1.03619 17.0339 1.12458 17.0339H16.8746C16.963 17.0339 17.0353 16.9616 17.0353 16.8732V16.15C17.0353 15.7944 16.748 15.5071 16.3924 15.5071Z" fill="#ABB8CE"/>
</svg>
