<svg width="22" height="22" viewBox="0 0 22 22" fill="none" xmlns="http://www.w3.org/2000/svg">
<path d="M12.0688 2.88055C11.7751 2.6167 11.3943 2.47073 10.9995 2.47073C10.6047 2.47073 10.2238 2.6167 9.93016 2.88055L4.06349 8.15202C3.89669 8.30202 3.76329 8.48542 3.67196 8.69032C3.58063 8.89522 3.53341 9.11703 3.53336 9.34135V16.8667C3.53336 17.291 3.70193 17.698 4.00198 17.9981C4.30204 18.2981 4.70901 18.4667 5.13336 18.4667H7.26669C7.69104 18.4667 8.098 18.2981 8.39806 17.9981C8.69812 17.698 8.86669 17.291 8.86669 16.8667V12.6C8.86669 12.4586 8.92288 12.3229 9.0229 12.2229C9.12292 12.1229 9.25857 12.0667 9.40002 12.0667H12.6C12.7415 12.0667 12.8771 12.1229 12.9771 12.2229C13.0772 12.3229 13.1334 12.4586 13.1334 12.6V16.8667C13.1334 17.291 13.3019 17.698 13.602 17.9981C13.902 18.2981 14.309 18.4667 14.7334 18.4667H16.8667C17.291 18.4667 17.698 18.2981 17.9981 17.9981C18.2981 17.698 18.4667 17.291 18.4667 16.8667V9.34135C18.4666 9.11703 18.4194 8.89522 18.3281 8.69032C18.2368 8.48542 18.1034 8.30202 17.9366 8.15202L12.0699 2.88055H12.0688Z" fill="#313131"/>
</svg>
