<svg width="27" height="27" viewBox="0 0 27 27" fill="none" xmlns="http://www.w3.org/2000/svg">
<path fill-rule="evenodd" clip-rule="evenodd" d="M13.2039 24.501C19.279 24.501 24.2039 19.5761 24.2039 13.501C24.2039 7.42584 19.279 2.50098 13.2039 2.50098C7.12873 2.50098 2.20386 7.42584 2.20386 13.501C2.20386 19.5761 7.12873 24.501 13.2039 24.501ZM13.2039 26.501C20.3836 26.501 26.2039 20.6807 26.2039 13.501C26.2039 6.32127 20.3836 0.500977 13.2039 0.500977C6.02416 0.500977 0.203857 6.32127 0.203857 13.501C0.203857 20.6807 6.02416 26.501 13.2039 26.501Z" fill="#1260AC"/>
<path d="M19.2039 14.701V12.2998H17.2083C17.1327 12.0454 17.0343 11.8042 16.9143 11.5726L18.3387 10.1482L16.6395 8.45018L15.2415 9.84938C14.9775 9.70178 14.6991 9.58418 14.4051 9.49658V7.50098H12.0051V9.49538C11.7303 9.57698 11.4699 9.68498 11.2227 9.81938L9.85346 8.45138L8.15546 10.1494L9.52346 11.5174C9.38906 11.7658 9.28106 12.0262 9.19826 12.301H7.20386V14.701H9.19826C9.28586 14.9962 9.40466 15.2758 9.55226 15.5386L8.15426 16.9342L9.84986 18.6334L11.2755 17.209C11.5059 17.3302 11.7483 17.4274 12.0015 17.503V19.501H14.4039V17.503C14.6787 17.4214 14.9379 17.3134 15.1851 17.179L16.6395 18.6334L18.3363 16.9342L16.8819 15.4822C17.0151 15.235 17.1231 14.9746 17.2059 14.701H19.2039ZM13.2027 15.2998C12.2079 15.2974 11.4051 14.4946 11.4015 13.4998C11.4051 12.505 12.2079 11.7022 13.2027 11.6986C14.1975 11.7022 15.0003 12.505 15.0027 13.4998C15.0003 14.4946 14.1975 15.2974 13.2027 15.2998Z" fill="#1260AC"/>
</svg>
