<svg width="22" height="22" viewBox="0 0 22 22" fill="none" xmlns="http://www.w3.org/2000/svg">
<path d="M17.7456 15.3659H16.3791C16.2858 15.3659 16.1983 15.4076 16.14 15.481C16.0039 15.6497 15.8582 15.8124 15.7046 15.9672C15.0765 16.6091 14.3326 17.1206 13.5139 17.4734C12.6657 17.8392 11.7541 18.0268 10.8334 18.0251C9.90226 18.0251 9.00032 17.8386 8.15281 17.4734C7.33412 17.1206 6.59018 16.6091 5.96211 15.9672C5.33293 15.3275 4.83123 14.5694 4.4848 13.7347C4.12519 12.8694 3.94442 11.9506 3.94442 11C3.94442 10.0495 4.12714 9.13063 4.4848 8.26539C4.8308 7.42992 5.32843 6.6778 5.96211 6.03284C6.5958 5.38788 7.33251 4.87985 8.15281 4.52661C9.00032 4.16146 9.90226 3.97492 10.8334 3.97492C11.7644 3.97492 12.6664 4.15948 13.5139 4.52661C14.3342 4.87985 15.0709 5.38788 15.7046 6.03284C15.8582 6.18961 16.002 6.35234 16.14 6.51904C16.1983 6.59247 16.2877 6.63414 16.3791 6.63414H17.7456C17.8681 6.63414 17.9439 6.49522 17.8758 6.39005C16.3849 4.02453 13.7763 2.45877 10.812 2.4667C6.15455 2.47861 2.42046 6.33845 2.46711 11.0873C2.51376 15.7608 6.24203 19.5333 10.8334 19.5333C13.7899 19.5333 16.3869 17.9696 17.8758 15.61C17.9419 15.5048 17.8681 15.3659 17.7456 15.3659ZM19.4737 10.875L16.7154 8.65237C16.6124 8.56902 16.4627 8.64443 16.4627 8.77739V10.2856H10.3591C10.2735 10.2856 10.2036 10.357 10.2036 10.4444V11.5557C10.2036 11.643 10.2735 11.7144 10.3591 11.7144H16.4627V13.2227C16.4627 13.3556 16.6143 13.431 16.7154 13.3477L19.4737 11.125C19.4923 11.1102 19.5073 11.0912 19.5176 11.0696C19.528 11.0479 19.5333 11.0241 19.5333 11C19.5333 10.9759 19.528 10.9521 19.5176 10.9305C19.5073 10.9088 19.4923 10.8899 19.4737 10.875Z" fill="#FF3A3A"/>
</svg>
