<svg width="26" height="26" viewBox="0 0 26 26" fill="none" xmlns="http://www.w3.org/2000/svg">
<path fill-rule="evenodd" clip-rule="evenodd" d="M13.0001 24C19.0752 24 24.0001 19.0751 24.0001 13C24.0001 6.92487 19.0752 2 13.0001 2C6.92493 2 2.00006 6.92487 2.00006 13C2.00006 19.0751 6.92493 24 13.0001 24ZM13.0001 26C20.1798 26 26.0001 20.1797 26.0001 13C26.0001 5.8203 20.1798 0 13.0001 0C5.82036 0 6.10352e-05 5.8203 6.10352e-05 13C6.10352e-05 20.1797 5.82036 26 13.0001 26Z" fill="#464646"/>
<path d="M13 19C13.6875 19 14.25 18.4462 14.25 17.7692H11.75C11.75 18.4462 12.3063 19 13 19ZM16.75 15.3077V12.2308C16.75 10.3415 15.725 8.76 13.9375 8.34154V7.92308C13.9375 7.41231 13.5188 7 13 7C12.4812 7 12.0625 7.41231 12.0625 7.92308V8.34154C10.2688 8.76 9.25 10.3354 9.25 12.2308V15.3077L8 16.5385V17.1538H18V16.5385L16.75 15.3077Z" fill="#464646"/>
</svg>
