<svg width="27" height="27" viewBox="0 0 27 27" fill="none" xmlns="http://www.w3.org/2000/svg">
<path fill-rule="evenodd" clip-rule="evenodd" d="M13.2039 2.35812C7.04983 2.35812 2.061 7.34695 2.061 13.501C2.061 19.655 7.04983 24.6438 13.2039 24.6438C19.3579 24.6438 24.3467 19.655 24.3467 13.501C24.3467 7.34695 19.3579 2.35812 13.2039 2.35812ZM0.203857 13.501C0.203857 6.32127 6.02416 0.500977 13.2039 0.500977C20.3836 0.500977 26.2039 6.32127 26.2039 13.501C26.2039 20.6807 20.3836 26.501 13.2039 26.501C6.02416 26.501 0.203857 20.6807 0.203857 13.501ZM11.8029 8.85839L11.8003 18.1808L9.94313 18.1802L9.94577 8.85786L11.8029 8.85839ZM16.4269 8.85839L16.4243 18.1808L14.5672 18.1802L14.5698 8.85786L16.4269 8.85839Z" fill="#EF9711"/>
</svg>
