<svg width="34" height="33" viewBox="0 0 34 33" fill="none" xmlns="http://www.w3.org/2000/svg">
<g clip-path="url(#clip0_77_11413)">
<path d="M2 29V3.00002C2 2.7348 2.10536 2.48045 2.29289 2.29291C2.48043 2.10537 2.73478 2.00002 3 2.00002H18V6.00002C18 6.53045 18.2107 7.03916 18.5858 7.41423C18.9609 7.7893 19.4696 8.00002 20 8.00002H24V11H26V7.00002C26.0008 6.86841 25.9755 6.73795 25.9258 6.61611C25.876 6.49427 25.8027 6.38346 25.71 6.29002L19.71 0.290017C19.6166 0.197335 19.5057 0.12401 19.3839 0.0742455C19.2621 0.0244809 19.1316 -0.000744179 19 1.67143e-05H3C2.20435 1.67143e-05 1.44129 0.316087 0.87868 0.878696C0.31607 1.44131 0 2.20437 0 3.00002L0 29C0 29.7957 0.31607 30.5587 0.87868 31.1213C1.44129 31.6839 2.20435 32 3 32H10V30H3C2.73478 30 2.48043 29.8947 2.29289 29.7071C2.10536 29.5196 2 29.2652 2 29Z" fill="black"/>
</g>
<path d="M5.69531 25V17H8.85156C9.45833 17 9.97526 17.1159 10.4023 17.3477C10.8294 17.5768 11.1549 17.8958 11.3789 18.3047C11.6055 18.7109 11.7188 19.1797 11.7188 19.7109C11.7188 20.2422 11.6042 20.7109 11.375 21.1172C11.1458 21.5234 10.8138 21.8398 10.3789 22.0664C9.94661 22.293 9.42318 22.4062 8.80859 22.4062H6.79688V21.0508H8.53516C8.86068 21.0508 9.12891 20.9948 9.33984 20.8828C9.55339 20.7682 9.71224 20.6107 9.81641 20.4102C9.92318 20.207 9.97656 19.974 9.97656 19.7109C9.97656 19.4453 9.92318 19.2135 9.81641 19.0156C9.71224 18.8151 9.55339 18.6602 9.33984 18.5508C9.1263 18.4388 8.85547 18.3828 8.52734 18.3828H7.38672V25H5.69531ZM15.6533 25H12.8174V17H15.6768C16.4814 17 17.1742 17.1602 17.7549 17.4805C18.3356 17.7982 18.7822 18.2552 19.0947 18.8516C19.4098 19.4479 19.5674 20.1615 19.5674 20.9922C19.5674 21.8255 19.4098 22.5417 19.0947 23.1406C18.7822 23.7396 18.333 24.1992 17.7471 24.5195C17.1637 24.8398 16.4658 25 15.6533 25ZM14.5088 23.5508H15.583C16.083 23.5508 16.5036 23.4622 16.8447 23.2852C17.1885 23.1055 17.4463 22.8281 17.6182 22.4531C17.7926 22.0755 17.8799 21.5885 17.8799 20.9922C17.8799 20.401 17.7926 19.918 17.6182 19.543C17.4463 19.168 17.1898 18.8919 16.8486 18.7148C16.5075 18.5378 16.0869 18.4492 15.5869 18.4492H14.5088V23.5508ZM20.8203 25V17H26.1172V18.3945H22.5117V20.3008H25.7656V21.6953H22.5117V25H20.8203Z" fill="black"/>
<defs>
<clipPath id="clip0_77_11413">
<rect width="32" height="32" fill="white"/>
</clipPath>
</defs>
</svg>
