<svg width="14" height="14" viewBox="0 0 14 14" fill="none" xmlns="http://www.w3.org/2000/svg">
<path d="M12.25 1.75V12.25H1.75V1.75H12.25ZM13.075 0.25H0.925C0.55 0.25 0.25 0.55 0.25 0.925V13.075C0.25 13.375 0.55 13.75 0.925 13.75H13.075C13.375 13.75 13.75 13.375 13.75 13.075V0.925C13.75 0.55 13.375 0.25 13.075 0.25V0.25ZM6.25 3.25H10.75V4.75H6.25V3.25ZM6.25 6.25H10.75V7.75H6.25V6.25ZM6.25 9.25H10.75V10.75H6.25V9.25ZM3.25 3.25H4.75V4.75H3.25V3.25ZM3.25 6.25H4.75V7.75H3.25V6.25ZM3.25 9.25H4.75V10.75H3.25V9.25Z" fill="#344058"/>
</svg>
