<svg width="27" height="27" viewBox="0 0 27 27" fill="none" xmlns="http://www.w3.org/2000/svg">
<path fill-rule="evenodd" clip-rule="evenodd" d="M13.2039 24.501C19.2791 24.501 24.2039 19.5761 24.2039 13.501C24.2039 7.42584 19.2791 2.50098 13.2039 2.50098C7.12879 2.50098 2.20392 7.42584 2.20392 13.501C2.20392 19.5761 7.12879 24.501 13.2039 24.501ZM13.2039 26.501C20.3836 26.501 26.2039 20.6807 26.2039 13.501C26.2039 6.32127 20.3836 0.500977 13.2039 0.500977C6.02422 0.500977 0.203918 6.32127 0.203918 13.501C0.203918 20.6807 6.02422 26.501 13.2039 26.501Z" fill="#EE4A49"/>
<path fill-rule="evenodd" clip-rule="evenodd" d="M18.4848 9.29867L9.33585 18.4316L7.92288 17.0162L17.0719 7.88322L18.4848 9.29867Z" fill="#EE4A49"/>
<path fill-rule="evenodd" clip-rule="evenodd" d="M9.34512 7.87679L18.4781 17.0258L17.0626 18.4388L7.92967 9.28976L9.34512 7.87679Z" fill="#EE4A49"/>
</svg>
