<svg width="27" height="27" viewBox="0 0 27 27" fill="none" xmlns="http://www.w3.org/2000/svg">
<path d="M17.1657 2.15207C17.3461 1.62407 17.064 1.04608 16.5224 0.907638C14.2061 0.315503 11.764 0.36939 9.46566 1.07342C6.84387 1.87654 4.54293 3.48473 2.89063 5.6689C1.23833 7.85307 0.318931 10.5018 0.263413 13.2378C0.207895 15.9738 1.01909 18.6575 2.58143 20.9066C4.14378 23.1558 6.37759 24.8556 8.96465 25.7639C11.5517 26.6723 14.3601 26.7428 16.9897 25.9656C19.6193 25.1883 21.936 23.6029 23.6099 21.4351C25.0772 19.5347 25.9848 17.2719 26.2421 14.8998C26.3022 14.3452 25.8588 13.8788 25.3 13.862C24.7412 13.8452 24.2794 14.2847 24.2113 14.8384C23.9719 16.785 23.2133 18.6389 22.0061 20.2022C20.5924 22.0331 18.6357 23.3722 16.4147 24.0287C14.1937 24.6852 11.8217 24.6256 9.63664 23.8584C7.45157 23.0912 5.56487 21.6555 4.2453 19.7559C2.92572 17.8563 2.24058 15.5896 2.28747 13.2787C2.33437 10.9678 3.1109 8.73069 4.50645 6.88591C5.902 5.04114 7.8454 3.68284 10.0598 3.00452C11.9506 2.42533 13.9565 2.36711 15.8674 2.82663C16.4109 2.95733 16.9854 2.68007 17.1657 2.15207Z" fill="white"/>
<path fill-rule="evenodd" clip-rule="evenodd" d="M16.5224 0.907638C17.064 1.04608 17.3461 1.62407 17.1657 2.15207C16.9854 2.68007 16.4109 2.95733 15.8674 2.82663C13.9565 2.36711 11.9506 2.42533 10.0598 3.00452C7.8454 3.68284 5.90201 5.04114 4.50645 6.88591C3.1109 8.73069 2.33437 10.9678 2.28747 13.2787C2.24058 15.5896 2.92572 17.8563 4.2453 19.7559C5.56487 21.6555 7.45158 23.0912 9.63664 23.8584C11.8217 24.6256 14.1937 24.6852 16.4147 24.0287C18.6357 23.3722 20.5924 22.0331 22.0061 20.2022C23.2133 18.6389 23.9719 16.785 24.2113 14.8384C24.2794 14.2847 24.7412 13.8452 25.3 13.862C25.8588 13.8788 26.3022 14.3452 26.2421 14.8998C25.9848 17.2719 25.0772 19.5347 23.6099 21.4351C21.936 23.6029 19.6193 25.1883 16.9897 25.9656C14.3601 26.7428 11.5517 26.6723 8.96465 25.7639C6.37759 24.8556 4.14378 23.1558 2.58143 20.9066C1.01909 18.6575 0.207895 15.9738 0.263413 13.2378C0.318931 10.5018 1.23833 7.85307 2.89063 5.6689C4.54293 3.48473 6.84387 1.87654 9.46566 1.07342C11.764 0.36939 14.2061 0.315503 16.5224 0.907638Z" fill="#329CE9"/>
<path d="M13.7932 16.2495C12.932 15.1495 12.0612 14.0373 11.2055 12.938C14.8524 10.0974 18.5109 7.25264 22.1517 4.41678C22.9979 5.50387 23.8728 6.62762 24.734 7.7276C21.1061 10.5485 17.4524 13.3993 13.7932 16.2495Z" fill="#329CE9"/>
<path d="M10.2562 13.7168C11.1024 14.8039 11.9594 15.8923 12.8056 16.9794C11.867 16.8644 10.8903 16.7448 9.89712 16.6231C10.0175 15.6489 10.1385 14.6692 10.2562 13.7168Z" fill="#329CE9"/>
</svg>
