<svg width="22" height="22" viewBox="0 0 22 22" fill="none" xmlns="http://www.w3.org/2000/svg">
<path d="M12.6178 19.8889H9.38224C9.17951 19.8889 8.98286 19.8197 8.8249 19.6926C8.66695 19.5655 8.55717 19.3883 8.51379 19.1902L8.15201 17.5156C7.6694 17.3041 7.21178 17.0397 6.78757 16.7271L5.15468 17.2471C4.9614 17.3088 4.75286 17.3024 4.56367 17.2292C4.37449 17.1559 4.21606 17.0202 4.11468 16.8445L2.49335 14.0436C2.39303 13.8677 2.35537 13.663 2.38654 13.4629C2.4177 13.2628 2.51584 13.0793 2.6649 12.9422L3.93157 11.7867C3.87397 11.2632 3.87397 10.735 3.93157 10.2116L2.6649 9.05867C2.51563 8.92158 2.41736 8.73785 2.38619 8.53759C2.35502 8.33733 2.3928 8.13242 2.49335 7.95645L4.11112 5.15378C4.2125 4.97806 4.37094 4.84231 4.56012 4.76906C4.7493 4.69581 4.95785 4.68948 5.15112 4.75111L6.78401 5.27111C7.0009 5.11111 7.22668 4.96178 7.45957 4.82667C7.68446 4.70045 7.91557 4.58578 8.15201 4.48356L8.51468 2.81067C8.55785 2.61262 8.66742 2.43528 8.82521 2.30805C8.983 2.18081 9.17954 2.11133 9.38224 2.11111H12.6178C12.8205 2.11133 13.017 2.18081 13.1748 2.30805C13.3326 2.43528 13.4422 2.61262 13.4853 2.81067L13.8516 4.48445C14.1005 4.59467 14.344 4.71823 14.5796 4.856C14.7991 4.98311 15.0116 5.12267 15.216 5.27289L16.8498 4.75289C17.0429 4.69148 17.2513 4.69793 17.4403 4.77117C17.6293 4.8444 17.7876 4.98003 17.8889 5.15556L19.5067 7.95823C19.7129 8.32 19.6418 8.77778 19.3351 9.05956L18.0685 10.2151C18.1261 10.7386 18.1261 11.2668 18.0685 11.7902L19.3351 12.9458C19.6418 13.2284 19.7129 13.6853 19.5067 14.0471L17.8889 16.8498C17.7875 17.0255 17.6291 17.1613 17.4399 17.2345C17.2507 17.3078 17.0422 17.3141 16.8489 17.2524L15.216 16.7324C14.7921 17.0448 14.3348 17.3089 13.8525 17.52L13.4853 19.1902C13.442 19.3881 13.3324 19.5652 13.1746 19.6923C13.0168 19.8194 12.8204 19.8887 12.6178 19.8889ZM10.9965 7.44445C10.0535 7.44445 9.1491 7.81905 8.4823 8.48585C7.8155 9.15264 7.4409 10.057 7.4409 11C7.4409 11.943 7.8155 12.8474 8.4823 13.5142C9.1491 14.181 10.0535 14.5556 10.9965 14.5556C11.9395 14.5556 12.8438 14.181 13.5106 13.5142C14.1774 12.8474 14.552 11.943 14.552 11C14.552 10.057 14.1774 9.15264 13.5106 8.48585C12.8438 7.81905 11.9395 7.44445 10.9965 7.44445Z" fill="#313131"/>
</svg>
