<svg width="18" height="14" viewBox="0 0 18 14" fill="none" xmlns="http://www.w3.org/2000/svg">
<path d="M17.1157 0.935471H6.26751C5.91193 0.935471 5.62465 1.22275 5.62465 1.57833V6.3194H0.88358C0.527999 6.3194 0.240723 6.60668 0.240723 6.96226V12.4265C0.240723 12.7821 0.527999 13.0694 0.88358 13.0694H11.7318C12.0874 13.0694 12.3747 12.7821 12.3747 12.4265V7.68547H17.1157C17.4713 7.68547 17.7586 7.39819 17.7586 7.04261V1.57833C17.7586 1.22275 17.4713 0.935471 17.1157 0.935471ZM6.99072 2.30154H11.0086V6.3194H6.99072V2.30154ZM5.62465 11.7033H1.60679V7.68547H5.62465V11.7033ZM11.0086 11.7033H6.99072V7.68547H11.0086V11.7033ZM16.3925 6.3194H12.3747V2.30154H16.3925V6.3194Z" fill="#344058"/>
</svg>
