<svg width="27" height="27" viewBox="0 0 27 27" fill="none" xmlns="http://www.w3.org/2000/svg">
<path d="M20.3473 3.69068C20.6283 3.30471 20.5447 2.76129 20.1409 2.50651C18.0806 1.20656 15.6909 0.50845 13.2432 0.501036C10.5067 0.492748 7.8373 1.34824 5.61536 2.94566C3.39341 4.54308 1.73223 6.80093 0.86845 9.3976C0.00466871 11.9943 -0.0176536 14.7973 0.804663 17.4074C1.62698 20.0175 3.25199 22.3015 5.44821 23.9341C7.64444 25.5667 10.2999 26.4646 13.0362 26.4999C15.7725 26.5352 18.4502 25.7061 20.6878 24.1307C22.6892 22.7216 24.2472 20.7797 25.1902 18.5336C25.3751 18.0933 25.1321 17.6001 24.6806 17.4449C24.2291 17.2898 23.7403 17.5317 23.551 17.97C22.7293 19.8726 21.3962 21.5174 19.6924 22.7169C17.7524 24.0828 15.4309 24.8016 13.0585 24.771C10.6861 24.7404 8.38384 23.962 6.47971 22.5465C4.57559 21.131 3.1667 19.1508 2.45376 16.8878C1.74081 14.6249 1.76016 12.1947 2.50906 9.94335C3.25796 7.69204 4.6982 5.73448 6.62463 4.34952C8.55106 2.96456 10.8654 2.22284 13.238 2.23003C15.3216 2.23634 17.3568 2.81994 19.1207 3.90793C19.5271 4.15858 20.0662 4.07665 20.3473 3.69068Z" fill="white"/>
<path d="M25.1911 15.392C25.6628 15.4664 26.1084 15.1444 26.1513 14.6689C26.2972 13.0511 26.1389 11.4176 25.6817 9.85363C25.2246 8.28963 24.4782 6.82803 23.4839 5.54355C23.1916 5.16599 22.6427 5.13474 22.2854 5.45144C21.9281 5.76813 21.8982 6.31266 22.1866 6.69317C23.0137 7.78459 23.6366 9.01965 24.0222 10.3387C24.4077 11.6578 24.5482 13.0339 24.4391 14.399C24.401 14.8749 24.7195 15.3176 25.1911 15.392Z" fill="#4A14E3"/>
<path fill-rule="evenodd" clip-rule="evenodd" d="M23.289 18.5333C22.4587 20.1974 21.2256 21.6375 19.6924 22.7169C17.7524 24.0828 15.4309 24.8016 13.0585 24.771C10.6861 24.7404 8.38384 23.962 6.47971 22.5465C4.57559 21.131 3.1667 19.1508 2.45376 16.8878C1.74081 14.6249 1.76016 12.1947 2.50906 9.94335C3.25796 7.69204 4.6982 5.73448 6.62463 4.34952C8.55106 2.96456 10.8654 2.22284 13.238 2.23003C15.1131 2.23571 16.9489 2.70891 18.5831 3.59648C18.7649 3.6952 18.9442 3.79904 19.1207 3.90793C19.1537 3.9283 19.1876 3.94647 19.2222 3.96246C19.613 4.14325 20.0891 4.04528 20.3473 3.69068C20.6283 3.30471 20.5447 2.76129 20.1409 2.50651C20.1035 2.48293 20.066 2.45953 20.0284 2.43634C19.8229 2.3096 19.6142 2.18879 19.4026 2.074C17.5191 1.05227 15.4037 0.50758 13.2432 0.501036C10.5067 0.492748 7.8373 1.34824 5.61536 2.94566C3.39341 4.54308 1.73223 6.80093 0.86845 9.3976C0.00466871 11.9943 -0.0176536 14.7973 0.804663 17.4074C1.62698 20.0175 3.25199 22.3015 5.44821 23.9341C7.64444 25.5667 10.2999 26.4646 13.0362 26.4999C15.7725 26.5352 18.4502 25.7061 20.6878 24.1307C22.4544 22.8869 23.8755 21.228 24.8332 19.3112C24.9408 19.0958 25.0426 18.8772 25.1383 18.6556C25.1558 18.615 25.1731 18.5743 25.1902 18.5336C25.3751 18.0933 25.1321 17.6001 24.6806 17.4449C24.2658 17.3024 23.8195 17.495 23.6029 17.8671C23.5837 17.9001 23.5664 17.9344 23.551 17.97C23.4688 18.1604 23.3814 18.3483 23.289 18.5333ZM22.548 7.19844C23.1969 8.16041 23.695 9.21931 24.0222 10.3387C24.3494 11.4581 24.5 12.6186 24.4715 13.7786C24.4664 13.9855 24.4556 14.1924 24.4391 14.399C24.436 14.4377 24.4352 14.4762 24.4367 14.5142C24.4538 14.9445 24.7579 15.3236 25.1911 15.392C25.6628 15.4664 26.1084 15.1444 26.1513 14.6689C26.1553 14.6248 26.159 14.5808 26.1626 14.5367C26.1818 14.2962 26.1943 14.0554 26.2001 13.8146C26.2323 12.4789 26.0585 11.1427 25.6817 9.85363C25.3049 8.5646 24.7317 7.34513 23.9851 6.23705C23.8505 6.03728 23.7103 5.84112 23.5645 5.64883C23.5378 5.61361 23.511 5.57851 23.4839 5.54355C23.1916 5.16599 22.6427 5.13474 22.2854 5.45144C21.9572 5.74239 21.9052 6.22563 22.1226 6.59733C22.1418 6.63022 22.1631 6.66224 22.1866 6.69317C22.3118 6.85837 22.4323 7.02687 22.548 7.19844Z" fill="#161E54"/>
<path fill-rule="evenodd" clip-rule="evenodd" d="M7.60388 6.50137C7.60388 6.17 7.87251 5.90137 8.20388 5.90137H14.9666C15.1235 5.90137 15.2741 5.96281 15.3863 6.07254L19.6235 10.2192C19.7389 10.332 19.8039 10.4866 19.8039 10.648V20.5014C19.8039 20.8327 19.5353 21.1014 19.2039 21.1014H8.20388C7.87251 21.1014 7.60388 20.8327 7.60388 20.5014V6.50137ZM17.8794 10.1913H15.4202V7.78471L17.8794 10.1913ZM14.2202 7.10137V10.648C14.2202 11.0709 14.5664 11.3913 14.9666 11.3913H18.6039V19.9014H8.80388V7.10137H14.2202ZM10.0184 13.3427C10.0184 13.0113 10.287 12.7427 10.6184 12.7427H16.9791C17.3104 12.7427 17.5791 13.0113 17.5791 13.3427C17.5791 13.674 17.3104 13.9427 16.9791 13.9427H10.6184C10.287 13.9427 10.0184 13.674 10.0184 13.3427ZM10.0184 15.6466C10.0184 15.3152 10.287 15.0466 10.6184 15.0466H16.9791C17.3104 15.0466 17.5791 15.3152 17.5791 15.6466C17.5791 15.9779 17.3104 16.2466 16.9791 16.2466H10.6184C10.287 16.2466 10.0184 15.9779 10.0184 15.6466ZM10.0184 17.9504C10.0184 17.6191 10.287 17.3504 10.6184 17.3504H16.9791C17.3104 17.3504 17.5791 17.6191 17.5791 17.9504C17.5791 18.2818 17.3104 18.5504 16.9791 18.5504H10.6184C10.287 18.5504 10.0184 18.2818 10.0184 17.9504Z" fill="#161E54"/>
</svg>
