<svg width="18" height="16" viewBox="0 0 18 16" fill="none" xmlns="http://www.w3.org/2000/svg">
<path d="M10.6533 9.79432L10.6538 9.79469L10.6556 9.79636L10.6537 9.79521C11.511 10.3255 12.0972 11.2573 12.1535 12.3276C12.1545 12.3493 12.1512 12.371 12.1436 12.3914C12.1361 12.4117 12.1245 12.4303 12.1095 12.4461C12.0945 12.4618 12.0765 12.4743 12.0565 12.4829C12.0365 12.4914 12.015 12.4958 11.9933 12.4958H11.1134C11.0293 12.4958 10.9613 12.4297 10.9552 12.3456C10.8789 11.3308 10.0309 10.527 9.00201 10.527C7.97314 10.527 7.12513 11.3288 7.04877 12.3456C7.04277 12.4297 6.97469 12.4958 6.89062 12.4958H6.00871C5.98698 12.4958 5.96548 12.4914 5.94551 12.4829C5.92554 12.4743 5.90751 12.4618 5.89253 12.4461C5.87755 12.4303 5.86592 12.4117 5.85836 12.3914C5.8508 12.371 5.84746 12.3493 5.84855 12.3276C5.87539 11.8158 6.02569 11.3182 6.28662 10.8771C6.54754 10.4361 6.91134 10.0647 7.34695 9.79479L7.34665 9.79432L7.34636 9.79384L7.34502 9.79168L7.34673 9.79357C6.9834 9.39193 6.76261 8.86185 6.76261 8.27758C6.76261 7.03435 7.76482 6.02813 9 6.02813C10.2352 6.02813 11.2374 7.03435 11.2374 8.27758C11.2387 8.83827 11.0302 9.37919 10.6529 9.79394L10.6533 9.79432ZM7.96083 8.27758C7.96083 8.85444 8.42714 9.32278 9 9.32278C9.57286 9.32278 10.0392 8.85444 10.0392 8.27758C10.0392 7.70071 9.57286 7.23237 9 7.23237C8.42714 7.23237 7.96083 7.70071 7.96083 8.27758ZM14.1429 2.21061V2.21117H17.3571C17.7124 2.21117 17.9994 2.4982 17.9994 2.85347V14.4249C17.9994 14.7802 17.7124 15.0672 17.3571 15.0672H0.642857C0.287585 15.0672 0.000558036 14.7802 0.000558036 14.4249V2.85347C0.000558036 2.4982 0.287585 2.21117 0.642857 2.21117H3.85714V2.21061H3.8577V1.08561C3.8577 0.997526 3.92977 0.925454 4.01786 0.925454H5.14286C5.23094 0.925454 5.30301 0.997526 5.30301 1.08561V2.21061H5.30357V2.21117H8.27679V2.21061H8.27734V1.08561C8.27734 0.997526 8.34941 0.925454 8.4375 0.925454H9.5625C9.65058 0.925454 9.72266 0.997526 9.72266 1.08561V2.21061H9.72321V2.21117H12.6964V2.21061H12.697V1.08561C12.697 0.997526 12.7691 0.925454 12.8571 0.925454H13.9821C14.0702 0.925454 14.1423 0.997526 14.1423 1.08561V2.21061H14.1429ZM1.44643 13.6213V13.6219H16.5536V13.6213H16.5541V3.65704H16.5536V3.65648H14.1429V3.65704H14.1423V4.78204C14.1423 4.87012 14.0702 4.9422 13.9821 4.9422H12.8571C12.7691 4.9422 12.697 4.87012 12.697 4.78204V3.65704H12.6964V3.65648H9.72321V3.65704H9.72266V4.78204C9.72266 4.87012 9.65058 4.9422 9.5625 4.9422H8.4375C8.34941 4.9422 8.27734 4.87012 8.27734 4.78204V3.65704H8.27679V3.65648H5.30357V3.65704H5.30301V4.78204C5.30301 4.87012 5.23094 4.9422 5.14286 4.9422H4.01786C3.92977 4.9422 3.8577 4.87012 3.8577 4.78204V3.65704H3.85714V3.65648H1.44643V3.65704H1.44587V13.6213H1.44643Z" fill="#344058" stroke="#344058" stroke-width="0.00111607"/>
</svg>
