<svg width="34" height="33" viewBox="0 0 34 33" fill="none" xmlns="http://www.w3.org/2000/svg">
<g clip-path="url(#clip0_170_13283)">
<path d="M2 29V3.00002C2 2.7348 2.10536 2.48045 2.29289 2.29291C2.48043 2.10537 2.73478 2.00002 3 2.00002H18V6.00002C18 6.53045 18.2107 7.03916 18.5858 7.41423C18.9609 7.7893 19.4696 8.00002 20 8.00002H24V11H26V7.00002C26.0008 6.86841 25.9755 6.73795 25.9258 6.61611C25.876 6.49427 25.8027 6.38346 25.71 6.29002L19.71 0.290017C19.6166 0.197335 19.5057 0.12401 19.3839 0.0742455C19.2621 0.0244809 19.1316 -0.000744179 19 1.67143e-05H3C2.20435 1.67143e-05 1.44129 0.316087 0.87868 0.878696C0.31607 1.44131 0 2.20437 0 3.00002L0 29C0 29.7957 0.31607 30.5587 0.87868 31.1213C1.44129 31.6839 2.20435 32 3 32H10V30H3C2.73478 30 2.48043 29.8947 2.29289 29.7071C2.10536 29.5196 2 29.2652 2 29Z" fill="black"/>
</g>
<path d="M7.28125 17L8.89453 19.7266H8.95703L10.5781 17H12.4883L10.0469 21L12.543 25H10.5977L8.95703 22.2695H8.89453L7.25391 25H5.31641L7.82031 21L5.36328 17H7.28125ZM13.5586 25V17H15.25V23.6055H18.6797V25H13.5586ZM24.1396 19.3008C24.1084 18.9857 23.9743 18.7409 23.7373 18.5664C23.5003 18.3919 23.1787 18.3047 22.7725 18.3047C22.4964 18.3047 22.2633 18.3437 22.0732 18.4219C21.8831 18.4974 21.7373 18.6029 21.6357 18.7383C21.5368 18.8737 21.4873 19.0273 21.4873 19.1992C21.4821 19.3424 21.512 19.4674 21.5771 19.5742C21.6449 19.681 21.7373 19.7734 21.8545 19.8516C21.9717 19.9271 22.1071 19.9935 22.2607 20.0508C22.4144 20.1055 22.5785 20.1523 22.7529 20.1914L23.4717 20.3633C23.8206 20.4414 24.141 20.5456 24.4326 20.6758C24.7243 20.806 24.9769 20.9661 25.1904 21.1562C25.404 21.3464 25.5693 21.5703 25.6865 21.8281C25.8063 22.0859 25.8675 22.3815 25.8701 22.7148C25.8675 23.2044 25.7425 23.6289 25.4951 23.9883C25.2503 24.3451 24.8962 24.6224 24.4326 24.8203C23.9717 25.0156 23.4157 25.1133 22.7646 25.1133C22.1188 25.1133 21.5563 25.0143 21.0771 24.8164C20.6006 24.6185 20.2282 24.3255 19.96 23.9375C19.6943 23.5469 19.555 23.0638 19.542 22.4883H21.1787C21.1969 22.7565 21.2738 22.9805 21.4092 23.1602C21.5472 23.3372 21.7308 23.4714 21.96 23.5625C22.1917 23.651 22.4535 23.6953 22.7451 23.6953C23.0316 23.6953 23.2803 23.6536 23.4912 23.5703C23.7048 23.487 23.8701 23.3711 23.9873 23.2227C24.1045 23.0742 24.1631 22.9036 24.1631 22.7109C24.1631 22.5312 24.1097 22.3802 24.0029 22.2578C23.8988 22.1354 23.7451 22.0312 23.542 21.9453C23.3415 21.8594 23.0954 21.7812 22.8037 21.7109L21.9326 21.4922C21.2581 21.3281 20.7256 21.0716 20.335 20.7227C19.9443 20.3737 19.7503 19.9036 19.7529 19.3125C19.7503 18.8281 19.8792 18.4049 20.1396 18.043C20.4027 17.681 20.7633 17.3984 21.2217 17.1953C21.68 16.9922 22.2008 16.8906 22.7842 16.8906C23.3779 16.8906 23.8962 16.9922 24.3389 17.1953C24.7842 17.3984 25.1305 17.681 25.3779 18.043C25.6253 18.4049 25.7529 18.8242 25.7607 19.3008H24.1396Z" fill="black"/>
<defs>
<clipPath id="clip0_170_13283">
<rect width="32" height="32" fill="white"/>
</clipPath>
</defs>
</svg>
