<svg width="34" height="33" viewBox="0 0 34 33" fill="none" xmlns="http://www.w3.org/2000/svg">
<g clip-path="url(#clip0_77_11408)">
<path d="M2 29V3.00002C2 2.7348 2.10536 2.48045 2.29289 2.29291C2.48043 2.10537 2.73478 2.00002 3 2.00002H18V6.00002C18 6.53045 18.2107 7.03916 18.5858 7.41423C18.9609 7.7893 19.4696 8.00002 20 8.00002H24V11H26V7.00002C26.0008 6.86841 25.9755 6.73795 25.9258 6.61611C25.876 6.49427 25.8027 6.38346 25.71 6.29002L19.71 0.290017C19.6166 0.197335 19.5057 0.12401 19.3839 0.0742455C19.2621 0.0244809 19.1316 -0.000744179 19 1.67143e-05H3C2.20435 1.67143e-05 1.44129 0.316087 0.87868 0.878696C0.31607 1.44131 0 2.20437 0 3.00002L0 29C0 29.7957 0.31607 30.5587 0.87868 31.1213C1.44129 31.6839 2.20435 32 3 32H10V30H3C2.73478 30 2.48043 29.8947 2.29289 29.7071C2.10536 29.5196 2 29.2652 2 29Z" fill="black"/>
</g>
<path d="M8.89844 17H10.5703V22.5781C10.5703 23.0937 10.4544 23.5417 10.2227 23.9219C9.99349 24.3021 9.67448 24.5951 9.26563 24.8008C8.85677 25.0065 8.38151 25.1094 7.83984 25.1094C7.35807 25.1094 6.92057 25.0247 6.52734 24.8555C6.13672 24.6836 5.82682 24.4232 5.59766 24.0742C5.36849 23.7227 5.25521 23.2812 5.25781 22.75H6.94141C6.94661 22.9609 6.98958 23.1419 7.07031 23.293C7.15365 23.4414 7.26693 23.556 7.41016 23.6367C7.55599 23.7148 7.72786 23.7539 7.92578 23.7539C8.13411 23.7539 8.3099 23.7096 8.45313 23.6211C8.59896 23.5299 8.70964 23.3971 8.78516 23.2227C8.86068 23.0482 8.89844 22.8333 8.89844 22.5781V17ZM11.9687 25V17H15.125C15.7318 17 16.2487 17.1159 16.6758 17.3477C17.1029 17.5768 17.4284 17.8958 17.6523 18.3047C17.8789 18.7109 17.9922 19.1797 17.9922 19.7109C17.9922 20.2422 17.8776 20.7109 17.6484 21.1172C17.4193 21.5234 17.0872 21.8398 16.6523 22.0664C16.2201 22.293 15.6966 22.4062 15.082 22.4062H13.0703V21.0508H14.8086C15.1341 21.0508 15.4023 20.9948 15.6133 20.8828C15.8268 20.7682 15.9857 20.6107 16.0898 20.4102C16.1966 20.207 16.25 19.974 16.25 19.7109C16.25 19.4453 16.1966 19.2135 16.0898 19.0156C15.9857 18.8151 15.8268 18.6602 15.6133 18.5508C15.3997 18.4388 15.1289 18.3828 14.8008 18.3828H13.6602V25H11.9687ZM19.0908 25V17H24.4814V18.3945H20.7822V20.3008H24.2041V21.6953H20.7822V23.6055H24.4971V25H19.0908ZM31.1309 19.5859C31.0762 19.3958 30.9993 19.2279 30.9004 19.082C30.8014 18.9336 30.6803 18.8086 30.5371 18.707C30.3965 18.6029 30.235 18.5234 30.0527 18.4688C29.873 18.4141 29.6738 18.3867 29.4551 18.3867C29.0462 18.3867 28.6868 18.4883 28.377 18.6914C28.0697 18.8945 27.8301 19.1901 27.6582 19.5781C27.4863 19.9635 27.4004 20.4349 27.4004 20.9922C27.4004 21.5495 27.485 22.0234 27.6543 22.4141C27.8236 22.8047 28.0632 23.1029 28.373 23.3086C28.6829 23.5117 29.0488 23.6133 29.4707 23.6133C29.8535 23.6133 30.1803 23.5456 30.4512 23.4102C30.7246 23.2721 30.9329 23.0781 31.0762 22.8281C31.222 22.5781 31.2949 22.2826 31.2949 21.9414L31.6387 21.9922H29.5762V20.7187H32.9238V21.7266C32.9238 22.4297 32.7754 23.0339 32.4785 23.5391C32.1816 24.0417 31.7728 24.4297 31.252 24.7031C30.7311 24.974 30.1348 25.1094 29.4629 25.1094C28.7129 25.1094 28.054 24.944 27.4863 24.6133C26.9186 24.2799 26.4759 23.8073 26.1582 23.1953C25.8431 22.5807 25.6855 21.8516 25.6855 21.0078C25.6855 20.3594 25.7793 19.7812 25.9668 19.2734C26.1569 18.763 26.4225 18.3307 26.7637 17.9766C27.1048 17.6224 27.502 17.3529 27.9551 17.168C28.4082 16.9831 28.8991 16.8906 29.4277 16.8906C29.8809 16.8906 30.3027 16.957 30.6934 17.0898C31.084 17.2201 31.4303 17.4049 31.7324 17.6445C32.0371 17.8841 32.2858 18.1693 32.4785 18.5C32.6712 18.8281 32.7949 19.1901 32.8496 19.5859H31.1309Z" fill="black"/>
<defs>
<clipPath id="clip0_77_11408">
<rect width="32" height="32" fill="white"/>
</clipPath>
</defs>
</svg>
