<svg width="34" height="33" viewBox="0 0 34 33" fill="none" xmlns="http://www.w3.org/2000/svg">
<g clip-path="url(#clip0_77_11418)">
<path d="M2 29V3.00002C2 2.7348 2.10536 2.48045 2.29289 2.29291C2.48043 2.10537 2.73478 2.00002 3 2.00002H18V6.00002C18 6.53045 18.2107 7.03916 18.5858 7.41423C18.9609 7.7893 19.4696 8.00002 20 8.00002H24V11H26V7.00002C26.0008 6.86841 25.9755 6.73795 25.9258 6.61611C25.876 6.49427 25.8027 6.38346 25.71 6.29002L19.71 0.290017C19.6166 0.197335 19.5057 0.12401 19.3839 0.0742455C19.2621 0.0244809 19.1316 -0.000744179 19 1.67143e-05H3C2.20435 1.67143e-05 1.44129 0.316087 0.87868 0.878696C0.31607 1.44131 0 2.20437 0 3.00002L0 29C0 29.7957 0.31607 30.5587 0.87868 31.1213C1.44129 31.6839 2.20435 32 3 32H10V30H3C2.73478 30 2.48043 29.8947 2.29289 29.7071C2.10536 29.5196 2 29.2652 2 29Z" fill="black"/>
</g>
<path d="M8.89844 17H10.5703V22.5781C10.5703 23.0937 10.4544 23.5417 10.2227 23.9219C9.99349 24.3021 9.67448 24.5951 9.26563 24.8008C8.85677 25.0065 8.38151 25.1094 7.83984 25.1094C7.35807 25.1094 6.92057 25.0247 6.52734 24.8555C6.13672 24.6836 5.82682 24.4232 5.59766 24.0742C5.36849 23.7227 5.25521 23.2812 5.25781 22.75H6.94141C6.94661 22.9609 6.98958 23.1419 7.07031 23.293C7.15365 23.4414 7.26693 23.556 7.41016 23.6367C7.55599 23.7148 7.72786 23.7539 7.92578 23.7539C8.13411 23.7539 8.3099 23.7096 8.45313 23.6211C8.59896 23.5299 8.70964 23.3971 8.78516 23.2227C8.86068 23.0482 8.89844 22.8333 8.89844 22.5781V17ZM11.9687 25V17H15.125C15.7318 17 16.2487 17.1159 16.6758 17.3477C17.1029 17.5768 17.4284 17.8958 17.6523 18.3047C17.8789 18.7109 17.9922 19.1797 17.9922 19.7109C17.9922 20.2422 17.8776 20.7109 17.6484 21.1172C17.4193 21.5234 17.0872 21.8398 16.6523 22.0664C16.2201 22.293 15.6966 22.4062 15.082 22.4062H13.0703V21.0508H14.8086C15.1341 21.0508 15.4023 20.9948 15.6133 20.8828C15.8268 20.7682 15.9857 20.6107 16.0898 20.4102C16.1966 20.207 16.25 19.974 16.25 19.7109C16.25 19.4453 16.1966 19.2135 16.0898 19.0156C15.9857 18.8151 15.8268 18.6602 15.6133 18.5508C15.3997 18.4388 15.1289 18.3828 14.8008 18.3828H13.6602V25H11.9687ZM24.3955 19.5859C24.3408 19.3958 24.264 19.2279 24.165 19.082C24.0661 18.9336 23.945 18.8086 23.8018 18.707C23.6611 18.6029 23.4997 18.5234 23.3174 18.4688C23.1377 18.4141 22.9385 18.3867 22.7197 18.3867C22.3109 18.3867 21.9515 18.4883 21.6416 18.6914C21.3343 18.8945 21.0947 19.1901 20.9229 19.5781C20.751 19.9635 20.665 20.4349 20.665 20.9922C20.665 21.5495 20.7497 22.0234 20.9189 22.4141C21.0882 22.8047 21.3278 23.1029 21.6377 23.3086C21.9476 23.5117 22.3135 23.6133 22.7354 23.6133C23.1182 23.6133 23.445 23.5456 23.7158 23.4102C23.9893 23.2721 24.1976 23.0781 24.3408 22.8281C24.4867 22.5781 24.5596 22.2826 24.5596 21.9414L24.9033 21.9922H22.8408V20.7187H26.1885V21.7266C26.1885 22.4297 26.04 23.0339 25.7432 23.5391C25.4463 24.0417 25.0374 24.4297 24.5166 24.7031C23.9958 24.974 23.3994 25.1094 22.7275 25.1094C21.9775 25.1094 21.3187 24.944 20.751 24.6133C20.1833 24.2799 19.7406 23.8073 19.4229 23.1953C19.1077 22.5807 18.9502 21.8516 18.9502 21.0078C18.9502 20.3594 19.0439 19.7812 19.2314 19.2734C19.4215 18.763 19.6872 18.3307 20.0283 17.9766C20.3695 17.6224 20.7666 17.3529 21.2197 17.168C21.6729 16.9831 22.1637 16.8906 22.6924 16.8906C23.1455 16.8906 23.5674 16.957 23.958 17.0898C24.3486 17.2201 24.695 17.4049 24.9971 17.6445C25.3018 17.8841 25.5505 18.1693 25.7432 18.5C25.9359 18.8281 26.0596 19.1901 26.1143 19.5859H24.3955Z" fill="black"/>
<defs>
<clipPath id="clip0_77_11418">
<rect width="32" height="32" fill="white"/>
</clipPath>
</defs>
</svg>
