<svg width="209" height="192" viewBox="0 0 209 192" fill="none" xmlns="http://www.w3.org/2000/svg">
<path d="M208.045 0H0.954163V160.658H208.045V0Z" fill="#034EA2"/>
<path fill-rule="evenodd" clip-rule="evenodd" d="M42.2293 63.1774C42.2293 63.1774 66.0877 1.97429 208.045 8.88432V17.7686C208.045 17.7686 139.333 1.72751 82.0729 39.9794C76.3469 44.1748 62.0318 57.7481 59.8845 63.1774H42.2293Z" fill="white"/>
<path fill-rule="evenodd" clip-rule="evenodd" d="M44.3765 83.1671C44.3765 83.1671 67.7578 21.964 208.284 28.874V37.7584C208.284 37.7584 140.526 21.7172 83.743 59.9691C78.0169 64.1645 63.9404 77.7378 61.7932 83.1671H44.3765Z" fill="white"/>
<path fill-rule="evenodd" clip-rule="evenodd" d="M46.2852 103.157C46.2852 103.157 69.4279 41.9537 208.045 48.8637V57.7481C208.045 57.7481 141.003 41.7069 84.9359 79.9589C79.2099 84.1542 65.372 97.7275 63.2247 103.157H46.2852Z" fill="white"/>
<path d="M28.3914 102.17H15.7464V149.306H49.864V140.422H28.3914V102.17Z" fill="#2F384B"/>
<path d="M67.0421 113.769H55.1129V149.306H67.0421V113.769Z" fill="#2F384B"/>
<path d="M100.205 112.535C98.0581 112.535 95.9108 113.028 94.0021 113.769C92.0934 114.509 90.1848 115.743 88.2761 117.47V113.769H76.3469V149.306H88.2761V123.887C89.469 123.147 90.4233 122.653 91.3777 122.159C92.332 121.913 93.2864 121.666 94.2407 121.666C95.4336 121.666 96.6265 121.913 97.3423 122.159C98.0581 122.406 98.7738 123.147 99.0124 123.887C99.251 124.627 99.4896 125.614 99.7281 127.095C99.9667 128.576 99.9667 130.057 99.9667 131.537V149.306H111.896V126.108C111.896 121.666 110.942 118.458 108.794 115.99C106.886 113.769 104.023 112.535 100.205 112.535Z" fill="#2F384B"/>
<path d="M158.42 113.769H144.343L133.13 127.589V99.9486H121.201V149.306H133.13V135.979L134.8 134.005L145.059 149.306H159.613L145.059 129.069L158.42 113.769Z" fill="#2F384B"/>
<path d="M198.979 129.81C198.264 128.576 197.548 127.342 196.355 126.602C195.162 125.614 194.208 125.121 193.015 124.627C191.822 124.134 190.629 123.887 189.436 123.64V123.147C192.06 122.406 194.446 121.172 196.116 118.951C197.786 116.977 198.741 114.509 198.741 111.548C198.741 109.573 198.264 107.846 197.548 106.118C196.593 104.638 195.4 103.157 193.73 102.17C192.06 101.183 190.152 100.442 188.004 99.9486C185.857 99.455 183.233 99.2082 180.131 99.2082C177.03 99.2082 173.928 99.455 171.065 100.195C170.111 100.442 169.395 100.689 168.679 100.936L168.202 111.054C168.918 110.807 169.633 110.314 170.349 110.067C171.542 109.573 172.735 109.326 174.166 109.08C175.359 108.833 176.791 108.586 177.984 108.586C178.7 108.586 179.654 108.586 180.847 108.833C182.04 109.08 182.994 109.326 183.71 109.573C184.426 109.82 184.903 110.314 185.38 111.054C185.857 111.794 186.096 112.535 186.096 113.522C186.096 114.756 185.857 115.743 185.38 116.483C184.903 117.224 184.187 117.717 183.233 118.211C182.278 118.704 181.324 118.951 179.893 118.951C178.7 119.198 175.598 119.198 174.166 119.198H171.781V127.835H174.166C175.359 127.835 178.222 127.835 179.654 127.835C181.085 127.835 182.517 128.082 183.471 128.576C184.664 128.823 185.38 129.563 186.096 130.303C186.811 131.044 187.05 132.278 187.05 133.758C187.05 135.239 186.811 136.226 186.334 137.213C185.857 137.954 185.141 138.694 184.426 139.188C183.471 139.928 182.278 140.422 180.847 140.668C179.415 140.915 177.984 140.915 176.791 140.915C174.644 140.915 172.496 140.422 169.872 139.681C168.44 139.188 167.009 138.694 165.816 137.954L165.339 148.319C166.293 148.566 167.486 148.812 168.918 149.306C171.781 149.799 175.121 150.293 179.177 150.293C182.756 150.293 185.619 149.799 188.004 149.306C190.39 148.566 192.537 147.578 194.446 146.098C196.116 144.617 197.548 143.136 198.502 141.162C199.456 139.188 199.934 136.967 199.934 134.745C200.172 132.771 199.695 131.044 198.979 129.81Z" fill="#2F384B"/>
<path d="M24.8126 97.7275H11.929V144.864H46.0466V135.979H24.8126V97.7275Z" fill="white"/>
<path d="M63.4633 109.326H51.5341V144.864H63.4633V109.326Z" fill="white"/>
<path d="M96.388 108.093C94.2407 108.093 92.0934 108.586 90.1848 109.326C88.2761 110.314 86.3674 111.301 84.4587 113.028V109.326H72.5295V144.864H84.4587V119.445C85.6517 118.704 86.606 118.211 87.5603 117.717C88.5147 117.47 89.469 117.224 90.4233 117.224C91.6163 117.224 92.8092 117.47 93.5249 117.717C94.2407 117.964 94.9565 118.704 95.195 119.445C95.4336 120.185 95.6722 121.172 95.9108 122.653C96.1494 124.134 96.1494 125.614 96.1494 126.848V144.617H108.079V121.419C108.079 116.977 107.124 113.769 104.977 111.301C103.307 109.326 100.444 108.093 96.388 108.093Z" fill="white"/>
<path d="M154.841 109.326H140.526L129.551 123.147V95.7532H117.383V144.864H129.551V131.784L131.221 129.563L141.48 144.864H155.796L141.48 124.627L154.841 109.326Z" fill="white"/>
<path d="M195.401 125.368C194.685 124.134 193.969 122.9 192.776 122.159C191.583 121.172 190.629 120.432 189.436 120.185C188.243 119.692 187.05 119.445 185.857 119.198V118.704C188.482 118.211 190.867 116.73 192.537 114.756C194.208 112.781 195.162 110.314 195.162 107.352C195.162 105.378 194.685 103.65 193.969 101.923C193.015 100.442 191.822 98.9614 190.152 97.9743C188.482 96.9871 186.573 96.2468 184.426 95.7532C182.278 95.2596 179.654 95.0128 176.552 95.0128C173.451 95.0128 170.349 95.2596 167.486 96C166.532 96.2468 165.816 96.4936 165.1 96.7404L164.623 106.859C165.339 106.612 166.055 106.118 166.77 105.871C167.963 105.378 169.156 105.131 170.588 104.884C171.781 104.638 173.212 104.391 174.405 104.391C175.121 104.391 176.075 104.391 177.268 104.638C178.461 104.884 179.415 105.131 180.131 105.378C180.847 105.625 181.324 106.118 181.801 106.859C182.278 107.599 182.517 108.339 182.517 109.326C182.517 110.56 182.278 111.548 181.801 112.288C181.324 113.028 180.608 113.522 179.654 114.015C178.7 114.509 177.745 114.756 176.314 114.756C175.121 115.003 172.019 115.003 170.588 115.003H168.679V123.64H170.826C172.019 123.64 174.882 123.64 176.314 123.64C177.745 123.64 179.177 123.887 180.131 124.38C181.324 124.627 182.04 125.368 182.756 126.108C183.471 126.848 183.71 128.082 183.71 129.563C183.71 131.044 183.471 132.278 182.994 133.018C182.517 133.758 181.801 134.499 181.085 134.992C180.131 135.733 178.938 136.226 177.507 136.473C176.075 136.72 174.644 136.72 173.451 136.72C171.303 136.72 169.156 136.226 166.532 135.486C165.1 134.992 163.669 134.499 162.476 133.758L161.999 144.123C163.192 144.37 164.385 144.864 165.577 145.111C168.44 145.851 171.781 146.098 175.837 146.098C179.415 146.098 182.278 145.851 184.664 145.111C187.05 144.37 189.197 143.383 191.106 141.902C192.776 140.668 194.208 138.941 195.162 136.967C196.116 134.992 196.593 132.771 196.593 130.55C196.355 128.329 196.116 126.848 195.401 125.368Z" fill="white"/>
<path d="M4.05594 176.304H0V173.342H11.2135V176.304H7.15753V188.643H4.05594V176.304Z" fill="white"/>
<path d="M16.2237 173.342V179.265H21.7112V173.342H25.0514V188.396H21.7112V181.98H16.2237V188.396H13.1221V173.342H16.2237Z" fill="white"/>
<path d="M36.742 181.98H31.2546V185.681H37.2192V188.396H27.9144V173.342H36.9806V176.057H31.2546V179.265H36.742V181.98Z" fill="white"/>
<path d="M43.8995 184.941C44.8539 185.435 46.0468 185.928 47.4783 185.928C48.9098 185.928 49.8641 185.188 49.8641 184.201C49.8641 183.214 49.1484 182.72 47.4783 181.98C45.0925 180.993 43.4224 179.759 43.4224 177.538C43.4224 175.07 45.5696 173.095 48.9098 173.095C50.5799 173.095 51.7728 173.342 52.7272 173.836L52.0114 176.55C51.5342 176.304 50.3413 175.81 48.9098 175.81C47.4783 175.81 46.7625 176.55 46.7625 177.291C46.7625 178.278 47.4783 178.771 49.387 179.512C52.0114 180.499 53.2043 181.98 53.2043 183.954C53.2043 186.422 51.2956 188.643 47.2397 188.643C45.5696 188.643 43.8995 188.149 43.1838 187.656L43.8995 184.941Z" fill="white"/>
<path d="M58.2146 184.201C58.2146 185.681 59.6461 186.175 61.3162 186.175C62.5091 186.175 63.4635 185.928 64.1792 185.681L64.6564 187.903C63.4635 188.396 62.2705 188.643 60.839 188.643C57.2603 188.643 55.113 186.422 55.113 182.967C55.113 180.252 56.7831 177.044 60.3619 177.044C63.702 177.044 65.1335 179.759 65.1335 182.473C65.1335 182.967 65.1335 183.46 65.1335 183.707H58.2146V184.201ZM62.032 181.733C62.032 180.993 61.7934 179.512 60.1233 179.512C58.6918 179.512 58.2146 180.746 57.976 181.733H62.032Z" fill="white"/>
<path d="M67.0422 181.239C67.0422 179.512 67.0422 178.525 67.0422 177.538H69.9052L70.1438 179.512C70.621 177.784 72.0525 177.291 73.0069 177.291C73.2454 177.291 73.484 177.291 73.7226 177.291V180.499C73.484 180.499 73.2454 180.499 72.7683 180.499C71.5753 180.499 70.621 181.239 70.621 182.226C70.621 182.473 70.621 182.72 70.621 182.967V188.643H67.2808V181.239H67.0422Z" fill="white"/>
<path d="M78.2557 177.538L79.6872 182.72C79.9258 183.707 80.1644 184.448 80.403 185.435C80.6416 184.448 80.6416 183.707 80.8801 182.72L82.3116 177.538H85.8904L81.8345 188.643H78.4943L74.6769 177.538H78.2557Z" fill="white"/>
<path d="M90.6621 174.576C90.6621 175.563 89.9463 176.304 88.992 176.304C88.0377 176.304 87.3219 175.563 87.3219 174.576C87.3219 173.589 88.0377 172.849 88.992 172.849C89.9463 172.849 90.6621 173.589 90.6621 174.576ZM87.3219 188.396V177.291H90.6621V188.396H87.3219Z" fill="white"/>
<path d="M101.16 188.149C100.683 188.396 99.4897 188.643 98.2968 188.643C94.9566 188.643 92.5708 186.422 92.5708 182.967C92.5708 179.759 94.718 177.044 98.5354 177.044C99.4897 177.044 100.444 177.291 101.16 177.538L100.683 180.005C100.205 179.759 99.7283 179.759 98.774 179.759C97.1039 179.759 95.911 180.993 95.911 182.72C95.911 184.694 97.1039 185.928 98.774 185.928C99.4897 185.928 100.205 185.681 100.683 185.681L101.16 188.149Z" fill="white"/>
<path d="M105.216 184.201C105.216 185.681 106.647 186.175 108.317 186.175C109.51 186.175 110.465 185.928 111.18 185.681L111.658 187.903C110.465 188.396 109.272 188.643 107.84 188.643C104.261 188.643 102.114 186.422 102.114 182.967C102.114 180.252 103.784 177.044 107.363 177.044C110.703 177.044 112.135 179.759 112.135 182.473C112.135 182.967 112.135 183.46 112.135 183.707H105.216V184.201ZM109.033 181.733C109.033 180.993 108.795 179.512 107.124 179.512C105.693 179.512 105.216 180.746 104.977 181.733H109.033Z" fill="white"/>
<path d="M129.313 188.149C128.836 188.396 127.404 188.89 125.495 188.89C120.485 188.89 117.861 185.681 117.861 181.239C117.861 176.057 121.439 173.342 125.734 173.342C127.404 173.342 128.836 173.589 129.313 174.083L128.836 176.55C128.12 176.304 127.166 176.057 125.973 176.057C123.348 176.057 121.201 177.784 121.201 180.993C121.201 183.954 122.871 185.928 125.973 185.928C126.927 185.928 128.12 185.681 128.836 185.435L129.313 188.149Z" fill="white"/>
<path d="M141.481 182.967C141.481 186.915 138.618 188.89 135.993 188.89C132.892 188.89 130.506 186.669 130.506 183.214C130.506 179.759 132.653 177.291 136.232 177.291C139.333 177.291 141.481 179.512 141.481 182.967ZM133.846 182.967C133.846 184.941 134.562 186.175 135.993 186.175C137.186 186.175 138.14 184.941 138.14 182.967C138.14 181.239 137.425 179.759 135.993 179.759C134.562 179.759 133.846 181.486 133.846 182.967Z" fill="white"/>
<path d="M143.628 180.993C143.628 179.512 143.628 178.525 143.628 177.538H146.491L146.729 179.018C147.207 178.278 148.161 177.291 149.831 177.291C151.263 177.291 152.217 178.031 152.694 179.265C153.171 178.771 153.648 178.278 154.126 178.031C154.603 177.784 155.319 177.538 156.034 177.538C158.182 177.538 159.613 179.018 159.613 182.226V188.643H156.511V182.72C156.511 181.239 156.034 180.252 154.841 180.252C154.126 180.252 153.648 180.746 153.41 181.486C153.41 181.733 153.41 181.98 153.41 182.473V188.89H150.308V182.72C150.308 181.239 149.831 180.499 148.877 180.499C147.922 180.499 147.445 181.239 147.445 181.733C147.445 181.98 147.207 182.226 147.207 182.72V189.136H144.105V180.993H143.628Z" fill="white"/>
<path d="M162.237 181.239C162.237 179.759 162.237 178.525 162.237 177.538H165.1L165.339 179.018C166.055 177.784 167.248 177.291 168.918 177.291C171.304 177.291 173.212 179.265 173.212 182.967C173.212 186.915 170.827 188.89 168.441 188.89C167.248 188.89 166.055 188.396 165.578 187.656V193.085H162.237V181.239ZM165.578 183.707C165.578 183.954 165.578 184.201 165.578 184.448C165.816 185.435 166.532 186.175 167.486 186.175C168.918 186.175 169.872 184.941 169.872 182.967C169.872 181.239 169.156 180.005 167.725 180.005C166.771 180.005 166.055 180.746 165.816 181.733C165.816 181.98 165.816 182.226 165.816 182.226V183.707H165.578Z" fill="white"/>
<path d="M181.324 188.396L181.086 187.409C180.37 188.396 179.416 188.643 177.984 188.643C175.837 188.643 174.644 186.915 174.644 185.188C174.644 182.226 177.03 180.993 180.847 180.993V180.746C180.847 180.252 180.608 179.265 178.938 179.265C177.745 179.265 176.791 179.759 176.075 180.005L175.36 177.784C176.075 177.291 177.507 176.797 179.416 176.797C182.994 176.797 184.187 179.018 184.187 181.486V185.435C184.187 186.422 184.187 187.409 184.426 188.149H181.324V188.396ZM180.847 183.214C179.177 183.214 177.745 183.707 177.745 184.941C177.745 185.928 178.223 186.175 178.938 186.175C179.654 186.175 180.37 185.681 180.608 184.941C180.608 184.694 180.608 184.448 180.608 184.448V183.214H180.847Z" fill="white"/>
<path d="M186.573 180.993C186.573 179.512 186.573 178.525 186.573 177.538H189.436L189.675 179.018C190.152 178.278 191.106 177.291 193.015 177.291C195.162 177.291 196.832 178.771 196.832 181.98V188.396H193.492V182.226C193.492 180.746 193.015 179.759 191.822 179.759C190.868 179.759 190.39 180.499 190.152 180.993C190.152 181.239 190.152 181.486 190.152 181.733V188.149H186.812V180.993H186.573Z" fill="white"/>
<path d="M201.365 177.538L203.035 182.967C203.274 183.707 203.513 184.448 203.513 184.941C203.751 184.448 203.751 183.46 203.99 182.967L205.183 177.538H208.761L206.376 184.694C204.944 189.137 203.751 190.864 202.558 191.851C201.365 192.838 200.172 193.332 199.457 193.332L198.741 190.37C199.218 190.37 199.695 190.124 200.172 189.877C200.65 189.63 201.127 189.137 201.604 188.396C201.604 188.149 201.842 188.149 201.842 187.903C201.842 187.656 201.842 187.656 201.604 187.409L197.787 177.291H201.365V177.538Z" fill="white"/>
</svg>
