<svg width="18" height="14" viewBox="0 0 18 14" fill="none" xmlns="http://www.w3.org/2000/svg">
<path d="M17.1157 0.935486H6.26751C5.91193 0.935486 5.62465 1.22276 5.62465 1.57834V6.31941H0.88358C0.527999 6.31941 0.240723 6.60669 0.240723 6.96227V12.4266C0.240723 12.7821 0.527999 13.0694 0.88358 13.0694H11.7318C12.0874 13.0694 12.3747 12.7821 12.3747 12.4266V7.68549H17.1157C17.4713 7.68549 17.7586 7.39821 17.7586 7.04263V1.57834C17.7586 1.22276 17.4713 0.935486 17.1157 0.935486ZM6.99072 2.30156H11.0086V6.31941H6.99072V2.30156ZM5.62465 11.7033H1.60679V7.68549H5.62465V11.7033ZM11.0086 11.7033H6.99072V7.68549H11.0086V11.7033ZM16.3925 6.31941H12.3747V2.30156H16.3925V6.31941Z" fill="#344058"/>
</svg>
