<svg width="34" height="33" viewBox="0 0 34 33" fill="none" xmlns="http://www.w3.org/2000/svg">
<g clip-path="url(#clip0_77_11423)">
<path d="M2 29V3.00002C2 2.7348 2.10536 2.48045 2.29289 2.29291C2.48043 2.10537 2.73478 2.00002 3 2.00002H18V6.00002C18 6.53045 18.2107 7.03916 18.5858 7.41423C18.9609 7.7893 19.4696 8.00002 20 8.00002H24V11H26V7.00002C26.0008 6.86841 25.9755 6.73795 25.9258 6.61611C25.876 6.49427 25.8027 6.38346 25.71 6.29002L19.71 0.290017C19.6166 0.197335 19.5057 0.12401 19.3839 0.0742455C19.2621 0.0244809 19.1316 -0.000744179 19 1.67143e-05H3C2.20435 1.67143e-05 1.44129 0.316087 0.87868 0.878696C0.31607 1.44131 0 2.20437 0 3.00002L0 29C0 29.7957 0.31607 30.5587 0.87868 31.1213C1.44129 31.6839 2.20435 32 3 32H10V30H3C2.73478 30 2.48043 29.8947 2.29289 29.7071C2.10536 29.5196 2 29.2652 2 29Z" fill="black"/>
</g>
<path d="M5.69531 25V17H8.85156C9.45833 17 9.97526 17.1159 10.4023 17.3477C10.8294 17.5768 11.1549 17.8958 11.3789 18.3047C11.6055 18.7109 11.7188 19.1797 11.7188 19.7109C11.7188 20.2422 11.6042 20.7109 11.375 21.1172C11.1458 21.5234 10.8138 21.8398 10.3789 22.0664C9.94661 22.293 9.42318 22.4062 8.80859 22.4062H6.79688V21.0508H8.53516C8.86068 21.0508 9.12891 20.9948 9.33984 20.8828C9.55339 20.7682 9.71224 20.6107 9.81641 20.4102C9.92318 20.207 9.97656 19.974 9.97656 19.7109C9.97656 19.4453 9.92318 19.2135 9.81641 19.0156C9.71224 18.8151 9.55339 18.6602 9.33984 18.5508C9.1263 18.4388 8.85547 18.3828 8.52734 18.3828H7.38672V25H5.69531ZM19.5088 17V25H18.0479L14.5674 19.9648H14.5088V25H12.8174V17H14.3018L17.7549 22.0312H17.8252V17H19.5088ZM26.2109 19.5859C26.1563 19.3958 26.0794 19.2279 25.9805 19.082C25.8815 18.9336 25.7604 18.8086 25.6172 18.707C25.4766 18.6029 25.3151 18.5234 25.1328 18.4688C24.9531 18.4141 24.7539 18.3867 24.5352 18.3867C24.1263 18.3867 23.7669 18.4883 23.457 18.6914C23.1497 18.8945 22.9102 19.1901 22.7383 19.5781C22.5664 19.9635 22.4805 20.4349 22.4805 20.9922C22.4805 21.5495 22.5651 22.0234 22.7344 22.4141C22.9036 22.8047 23.1432 23.1029 23.4531 23.3086C23.763 23.5117 24.1289 23.6133 24.5508 23.6133C24.9336 23.6133 25.2604 23.5456 25.5313 23.4102C25.8047 23.2721 26.013 23.0781 26.1563 22.8281C26.3021 22.5781 26.375 22.2826 26.375 21.9414L26.7187 21.9922H24.6563V20.7187H28.0039V21.7266C28.0039 22.4297 27.8555 23.0339 27.5586 23.5391C27.2617 24.0417 26.8529 24.4297 26.332 24.7031C25.8112 24.974 25.2148 25.1094 24.543 25.1094C23.793 25.1094 23.1341 24.944 22.5664 24.6133C21.9987 24.2799 21.556 23.8073 21.2383 23.1953C20.9232 22.5807 20.7656 21.8516 20.7656 21.0078C20.7656 20.3594 20.8594 19.7812 21.0469 19.2734C21.237 18.763 21.5026 18.3307 21.8438 17.9766C22.1849 17.6224 22.582 17.3529 23.0352 17.168C23.4883 16.9831 23.9792 16.8906 24.5078 16.8906C24.9609 16.8906 25.3828 16.957 25.7734 17.0898C26.1641 17.2201 26.5104 17.4049 26.8125 17.6445C27.1172 17.8841 27.3659 18.1693 27.5586 18.5C27.7513 18.8281 27.875 19.1901 27.9297 19.5859H26.2109Z" fill="black"/>
<defs>
<clipPath id="clip0_77_11423">
<rect width="32" height="32" fill="white"/>
</clipPath>
</defs>
</svg>
