<svg width="18" height="16" viewBox="0 0 18 16" fill="none" xmlns="http://www.w3.org/2000/svg">
<g clip-path="url(#clip0_4_4019)">
<path d="M3.53595 15.0068L3.54188 15.05H3.58549H14.4141H14.4577L14.4636 15.0068L14.5206 14.5915C14.5206 14.5914 14.5206 14.5913 14.5206 14.5913C14.5496 14.3937 14.5496 14.2244 14.5496 14.0314V14.0302C14.5778 11.7421 13.1265 9.80815 11.0776 9.02899C12.0683 8.37678 12.6973 7.30523 12.6973 6.04767C12.6973 4.07888 11.0496 2.45 8.9998 2.45C6.97901 2.45 5.30226 4.05066 5.30226 6.04767C5.30226 7.27923 5.95914 8.37628 6.92504 9.0295C4.90273 9.8346 3.45 11.7684 3.45 14.0299V14.0314C3.45 14.2244 3.45 14.3938 3.47899 14.5913C3.479 14.5914 3.47902 14.5914 3.47903 14.5915L3.53595 15.0068ZM6.37114 6.04767C6.37114 4.63534 7.57278 3.46463 9.0283 3.46463C10.4838 3.46463 11.6854 4.63534 11.6854 6.04767C11.6854 7.46 10.4838 8.63071 9.0283 8.63071C7.57278 8.63071 6.37114 7.46 6.37114 6.04767ZM4.51888 14.0076V14.0075V14.0074V14.0072V14.0071V14.007V14.0068V14.0067V14.0065V14.0064V14.0062V14.0061V14.0059V14.0058V14.0056V14.0055V14.0053V14.0052V14.005V14.0049V14.0047V14.0046V14.0044V14.0043V14.0041V14.004V14.0038V14.0037V14.0035V14.0033V14.0032V14.003V14.0029V14.0027V14.0025V14.0024V14.0022C4.51888 11.5921 6.54691 9.61763 9.0283 9.61763C11.5097 9.61763 13.5377 11.5921 13.5377 14.0022V14.0024V14.0025V14.0027V14.0029V14.003V14.0032V14.0034V14.0035V14.0037V14.0038V14.004V14.0042V14.0043V14.0045V14.0047V14.0048V14.005V14.0051V14.0053V14.0055V14.0056V14.0058V14.0059V14.0061V14.0063V14.0064V14.0066V14.0068V14.0069V14.0071V14.0072V14.0074V14.0076V14.0076H4.51888Z" fill="#344058" stroke="#344058" stroke-width="0.1"/>
<path d="M0.301161 11.7528L0.309022 11.8L0.356498 11.7942L1.24731 11.6862L1.30091 11.6797L1.29032 11.6268C1.26445 11.4974 1.2643 11.3674 1.2643 11.2316C1.2643 9.26027 2.78284 7.60735 4.7556 7.3939C4.75571 7.39389 4.75581 7.39388 4.75592 7.39387L5.32216 7.33994L5.38411 7.33404L5.36501 7.27482L5.09506 6.43793L5.08502 6.40678L5.05245 6.40353L4.78356 6.37663C3.675 6.21773 2.85696 5.26724 2.85696 4.15858C2.85696 2.91736 3.86036 1.91389 5.10147 1.91389C5.81332 1.91389 6.50053 2.28335 6.92363 2.86516L6.95259 2.90498L6.99285 2.87665L7.72169 2.36371L7.76274 2.33483L7.73369 2.29389C7.13013 1.44336 6.14291 0.95 5.10147 0.95C3.3195 0.95 1.86615 2.40292 1.86615 4.15858C1.86615 5.22204 2.38183 6.20875 3.21434 6.79303C1.4616 7.52289 0.273486 9.21922 0.273486 11.2316L0.273486 11.2339C0.273486 11.3944 0.273485 11.5867 0.301161 11.7528Z" fill="#344058" stroke="#344058" stroke-width="0.1"/>
<path d="M17.4678 12.0498L17.5142 12.0542L17.5219 12.0082C17.55 11.8383 17.55 11.6415 17.55 11.5042V11.5025C17.55 9.46819 16.3389 7.70398 14.5522 6.95726C15.3758 6.33682 15.9291 5.35274 15.9291 4.26131C15.9291 2.43749 14.451 0.95 12.6374 0.95C11.577 0.95 10.6007 1.45549 9.95976 2.32459L9.92991 2.36507L9.97056 2.39468L10.7673 2.97509L10.8087 3.00526L10.8378 2.96311C11.2679 2.3412 11.9666 1.9897 12.6923 1.9897C13.9556 1.9897 14.9775 3.01728 14.9775 4.28894C14.9775 5.42464 14.1168 6.39882 13.0147 6.56109L13.0147 6.56102L13.0121 6.56153L12.7374 6.61681L12.7099 6.62235L12.7003 6.64871L12.3981 7.47785L12.3759 7.53858L12.4403 7.54475L13.0172 7.60002L13.0172 7.60003L13.0179 7.60008C14.997 7.76373 16.5709 9.48287 16.5709 11.5025C16.5709 11.6415 16.5707 11.7748 16.5444 11.9073L16.5336 11.9617L16.5887 11.9669L17.4678 12.0498Z" fill="#344058" stroke="#344058" stroke-width="0.1"/>
</g>
<defs>
<clipPath id="clip0_4_4019">
<rect width="18" height="14.502" fill="white" transform="translate(0 0.740234)"/>
</clipPath>
</defs>
</svg>
